<svg width="1344" height="626" viewBox="0 0 1344 626" fill="none" xmlns="http://www.w3.org/2000/svg">
<mask id="mask0_0_356" style="mask-type:alpha" maskUnits="userSpaceOnUse" x="-96" y="0" width="1440" height="626">
<rect x="-96" width="1440" height="626" fill="#E2EAEE"/>
</mask>
<g mask="url(#mask0_0_356)">
<g opacity="0.17">
<path d="M-263.331 237.334C-263.331 238.623 -264.377 239.669 -265.666 239.669C-266.955 239.669 -268 238.623 -268 237.334C-268 236.045 -266.955 235 -265.666 235C-264.377 235 -263.331 236.045 -263.331 237.334Z" fill="black"/>
<path d="M618.669 242.334C618.669 243.623 617.623 244.669 616.334 244.669C615.045 244.669 614 243.623 614 242.334C614 241.045 615.045 240 616.334 240C617.623 240 618.669 241.045 618.669 242.334Z" fill="black"/>
<path d="M-263.331 281.218C-263.331 282.508 -264.377 283.553 -265.666 283.553C-266.955 283.553 -268 282.508 -268 281.218C-268 279.929 -266.955 278.884 -265.666 278.884C-264.377 278.884 -263.331 279.929 -263.331 281.218Z" fill="black"/>
<path d="M618.669 286.218C618.669 287.508 617.623 288.553 616.334 288.553C615.045 288.553 614 287.508 614 286.218C614 284.929 615.045 283.884 616.334 283.884C617.623 283.884 618.669 284.929 618.669 286.218Z" fill="black"/>
<path d="M-263.331 325.103C-263.331 326.392 -264.377 327.437 -265.666 327.437C-266.955 327.437 -268 326.392 -268 325.103C-268 323.813 -266.955 322.768 -265.666 322.768C-264.377 322.768 -263.331 323.813 -263.331 325.103Z" fill="black"/>
<path d="M618.669 330.103C618.669 331.392 617.623 332.437 616.334 332.437C615.045 332.437 614 331.392 614 330.103C614 328.813 615.045 327.768 616.334 327.768C617.623 327.768 618.669 328.813 618.669 330.103Z" fill="black"/>
<path d="M-263.331 368.987C-263.331 370.276 -264.377 371.321 -265.666 371.321C-266.955 371.321 -268 370.276 -268 368.987C-268 367.697 -266.955 366.652 -265.666 366.652C-264.377 366.652 -263.331 367.697 -263.331 368.987Z" fill="black"/>
<path d="M618.669 373.987C618.669 375.276 617.623 376.321 616.334 376.321C615.045 376.321 614 375.276 614 373.987C614 372.697 615.045 371.652 616.334 371.652C617.623 371.652 618.669 372.697 618.669 373.987Z" fill="black"/>
<path d="M-263.331 412.871C-263.331 414.16 -264.377 415.205 -265.666 415.205C-266.955 415.205 -268 414.16 -268 412.871C-268 411.582 -266.955 410.536 -265.666 410.536C-264.377 410.536 -263.331 411.582 -263.331 412.871Z" fill="black"/>
<path d="M618.669 417.871C618.669 419.16 617.623 420.205 616.334 420.205C615.045 420.205 614 419.16 614 417.871C614 416.582 615.045 415.536 616.334 415.536C617.623 415.536 618.669 416.582 618.669 417.871Z" fill="black"/>
<path d="M-263.331 456.755C-263.331 458.044 -264.377 459.089 -265.666 459.089C-266.955 459.089 -268 458.044 -268 456.755C-268 455.466 -266.955 454.421 -265.666 454.421C-264.377 454.421 -263.331 455.466 -263.331 456.755Z" fill="black"/>
<path d="M618.669 461.755C618.669 463.044 617.623 464.089 616.334 464.089C615.045 464.089 614 463.044 614 461.755C614 460.466 615.045 459.421 616.334 459.421C617.623 459.421 618.669 460.466 618.669 461.755Z" fill="black"/>
<path d="M-263.331 500.639C-263.331 501.928 -264.377 502.973 -265.666 502.973C-266.955 502.973 -268 501.928 -268 500.639C-268 499.35 -266.955 498.305 -265.666 498.305C-264.377 498.305 -263.331 499.35 -263.331 500.639Z" fill="black"/>
<path d="M618.669 505.639C618.669 506.928 617.623 507.973 616.334 507.973C615.045 507.973 614 506.928 614 505.639C614 504.35 615.045 503.305 616.334 503.305C617.623 503.305 618.669 504.35 618.669 505.639Z" fill="black"/>
<path d="M-263.331 544.523C-263.331 545.812 -264.377 546.857 -265.666 546.857C-266.955 546.857 -268 545.812 -268 544.523C-268 543.234 -266.955 542.189 -265.666 542.189C-264.377 542.189 -263.331 543.234 -263.331 544.523Z" fill="black"/>
<path d="M618.669 549.523C618.669 550.812 617.623 551.857 616.334 551.857C615.045 551.857 614 550.812 614 549.523C614 548.234 615.045 547.189 616.334 547.189C617.623 547.189 618.669 548.234 618.669 549.523Z" fill="black"/>
<path d="M-263.331 588.407C-263.331 589.696 -264.377 590.741 -265.666 590.741C-266.955 590.741 -268 589.696 -268 588.407C-268 587.118 -266.955 586.073 -265.666 586.073C-264.377 586.073 -263.331 587.118 -263.331 588.407Z" fill="black"/>
<path d="M618.669 593.407C618.669 594.696 617.623 595.741 616.334 595.741C615.045 595.741 614 594.696 614 593.407C614 592.118 615.045 591.073 616.334 591.073C617.623 591.073 618.669 592.118 618.669 593.407Z" fill="black"/>
<path d="M-263.331 632.291C-263.331 633.581 -264.377 634.626 -265.666 634.626C-266.955 634.626 -268 633.581 -268 632.291C-268 631.002 -266.955 629.957 -265.666 629.957C-264.377 629.957 -263.331 631.002 -263.331 632.291Z" fill="black"/>
<path d="M618.669 637.291C618.669 638.581 617.623 639.626 616.334 639.626C615.045 639.626 614 638.581 614 637.291C614 636.002 615.045 634.957 616.334 634.957C617.623 634.957 618.669 636.002 618.669 637.291Z" fill="black"/>
<path d="M-263.331 676.175C-263.331 677.465 -264.377 678.51 -265.666 678.51C-266.955 678.51 -268 677.465 -268 676.175C-268 674.886 -266.955 673.841 -265.666 673.841C-264.377 673.841 -263.331 674.886 -263.331 676.175Z" fill="black"/>
<path d="M618.669 681.175C618.669 682.465 617.623 683.51 616.334 683.51C615.045 683.51 614 682.465 614 681.175C614 679.886 615.045 678.841 616.334 678.841C617.623 678.841 618.669 679.886 618.669 681.175Z" fill="black"/>
<path d="M-214.312 237.334C-214.312 238.623 -215.357 239.669 -216.646 239.669C-217.935 239.669 -218.981 238.623 -218.981 237.334C-218.981 236.045 -217.935 235 -216.646 235C-215.357 235 -214.312 236.045 -214.312 237.334Z" fill="black"/>
<path d="M667.688 242.334C667.688 243.623 666.643 244.669 665.354 244.669C664.065 244.669 663.02 243.623 663.02 242.334C663.02 241.045 664.065 240 665.354 240C666.643 240 667.688 241.045 667.688 242.334Z" fill="black"/>
<path d="M-214.312 281.218C-214.312 282.508 -215.357 283.553 -216.646 283.553C-217.935 283.553 -218.981 282.508 -218.981 281.218C-218.981 279.929 -217.935 278.884 -216.646 278.884C-215.357 278.884 -214.312 279.929 -214.312 281.218Z" fill="black"/>
<path d="M667.688 286.218C667.688 287.508 666.643 288.553 665.354 288.553C664.065 288.553 663.02 287.508 663.02 286.218C663.02 284.929 664.065 283.884 665.354 283.884C666.643 283.884 667.688 284.929 667.688 286.218Z" fill="black"/>
<path d="M-214.312 325.103C-214.312 326.392 -215.357 327.437 -216.646 327.437C-217.935 327.437 -218.981 326.392 -218.981 325.103C-218.981 323.813 -217.935 322.768 -216.646 322.768C-215.357 322.768 -214.312 323.813 -214.312 325.103Z" fill="black"/>
<path d="M667.688 330.103C667.688 331.392 666.643 332.437 665.354 332.437C664.065 332.437 663.02 331.392 663.02 330.103C663.02 328.813 664.065 327.768 665.354 327.768C666.643 327.768 667.688 328.813 667.688 330.103Z" fill="black"/>
<path d="M-214.312 368.987C-214.312 370.276 -215.357 371.321 -216.646 371.321C-217.935 371.321 -218.981 370.276 -218.981 368.987C-218.981 367.697 -217.935 366.652 -216.646 366.652C-215.357 366.652 -214.312 367.697 -214.312 368.987Z" fill="black"/>
<path d="M667.688 373.987C667.688 375.276 666.643 376.321 665.354 376.321C664.065 376.321 663.02 375.276 663.02 373.987C663.02 372.697 664.065 371.652 665.354 371.652C666.643 371.652 667.688 372.697 667.688 373.987Z" fill="black"/>
<path d="M-214.312 412.871C-214.312 414.16 -215.357 415.205 -216.646 415.205C-217.935 415.205 -218.981 414.16 -218.981 412.871C-218.981 411.582 -217.935 410.536 -216.646 410.536C-215.357 410.536 -214.312 411.582 -214.312 412.871Z" fill="black"/>
<path d="M667.688 417.871C667.688 419.16 666.643 420.205 665.354 420.205C664.065 420.205 663.02 419.16 663.02 417.871C663.02 416.582 664.065 415.536 665.354 415.536C666.643 415.536 667.688 416.582 667.688 417.871Z" fill="black"/>
<path d="M-214.312 456.755C-214.312 458.044 -215.357 459.089 -216.646 459.089C-217.935 459.089 -218.981 458.044 -218.981 456.755C-218.981 455.466 -217.935 454.421 -216.646 454.421C-215.357 454.421 -214.312 455.466 -214.312 456.755Z" fill="black"/>
<path d="M667.688 461.755C667.688 463.044 666.643 464.089 665.354 464.089C664.065 464.089 663.02 463.044 663.02 461.755C663.02 460.466 664.065 459.421 665.354 459.421C666.643 459.421 667.688 460.466 667.688 461.755Z" fill="black"/>
<path d="M-214.312 500.639C-214.312 501.928 -215.357 502.973 -216.646 502.973C-217.935 502.973 -218.981 501.928 -218.981 500.639C-218.981 499.35 -217.935 498.305 -216.646 498.305C-215.357 498.305 -214.312 499.35 -214.312 500.639Z" fill="black"/>
<path d="M667.688 505.639C667.688 506.928 666.643 507.973 665.354 507.973C664.065 507.973 663.02 506.928 663.02 505.639C663.02 504.35 664.065 503.305 665.354 503.305C666.643 503.305 667.688 504.35 667.688 505.639Z" fill="black"/>
<path d="M-214.312 544.523C-214.312 545.812 -215.357 546.857 -216.646 546.857C-217.935 546.857 -218.981 545.812 -218.981 544.523C-218.981 543.234 -217.935 542.189 -216.646 542.189C-215.357 542.189 -214.312 543.234 -214.312 544.523Z" fill="black"/>
<path d="M667.688 549.523C667.688 550.812 666.643 551.857 665.354 551.857C664.065 551.857 663.02 550.812 663.02 549.523C663.02 548.234 664.065 547.189 665.354 547.189C666.643 547.189 667.688 548.234 667.688 549.523Z" fill="black"/>
<path d="M-214.312 588.407C-214.312 589.696 -215.357 590.741 -216.646 590.741C-217.935 590.741 -218.981 589.696 -218.981 588.407C-218.981 587.118 -217.935 586.073 -216.646 586.073C-215.357 586.073 -214.312 587.118 -214.312 588.407Z" fill="black"/>
<path d="M667.688 593.407C667.688 594.696 666.643 595.741 665.354 595.741C664.065 595.741 663.02 594.696 663.02 593.407C663.02 592.118 664.065 591.073 665.354 591.073C666.643 591.073 667.688 592.118 667.688 593.407Z" fill="black"/>
<path d="M-214.312 632.291C-214.312 633.581 -215.357 634.626 -216.646 634.626C-217.935 634.626 -218.981 633.581 -218.981 632.291C-218.981 631.002 -217.935 629.957 -216.646 629.957C-215.357 629.957 -214.312 631.002 -214.312 632.291Z" fill="black"/>
<path d="M667.688 637.291C667.688 638.581 666.643 639.626 665.354 639.626C664.065 639.626 663.02 638.581 663.02 637.291C663.02 636.002 664.065 634.957 665.354 634.957C666.643 634.957 667.688 636.002 667.688 637.291Z" fill="black"/>
<path d="M-214.312 676.175C-214.312 677.465 -215.357 678.51 -216.646 678.51C-217.935 678.51 -218.981 677.465 -218.981 676.175C-218.981 674.886 -217.935 673.841 -216.646 673.841C-215.357 673.841 -214.312 674.886 -214.312 676.175Z" fill="black"/>
<path d="M667.688 681.175C667.688 682.465 666.643 683.51 665.354 683.51C664.065 683.51 663.02 682.465 663.02 681.175C663.02 679.886 664.065 678.841 665.354 678.841C666.643 678.841 667.688 679.886 667.688 681.175Z" fill="black"/>
<path d="M-165.292 237.334C-165.292 238.623 -166.338 239.669 -167.627 239.669C-168.916 239.669 -169.961 238.623 -169.961 237.334C-169.961 236.045 -168.916 235 -167.627 235C-166.338 235 -165.292 236.045 -165.292 237.334Z" fill="black"/>
<path d="M716.708 242.334C716.708 243.623 715.662 244.669 714.373 244.669C713.084 244.669 712.039 243.623 712.039 242.334C712.039 241.045 713.084 240 714.373 240C715.662 240 716.708 241.045 716.708 242.334Z" fill="black"/>
<path d="M-165.292 281.218C-165.292 282.508 -166.338 283.553 -167.627 283.553C-168.916 283.553 -169.961 282.508 -169.961 281.218C-169.961 279.929 -168.916 278.884 -167.627 278.884C-166.338 278.884 -165.292 279.929 -165.292 281.218Z" fill="black"/>
<path d="M716.708 286.218C716.708 287.508 715.662 288.553 714.373 288.553C713.084 288.553 712.039 287.508 712.039 286.218C712.039 284.929 713.084 283.884 714.373 283.884C715.662 283.884 716.708 284.929 716.708 286.218Z" fill="black"/>
<path d="M-165.292 325.103C-165.292 326.392 -166.338 327.437 -167.627 327.437C-168.916 327.437 -169.961 326.392 -169.961 325.103C-169.961 323.813 -168.916 322.768 -167.627 322.768C-166.338 322.768 -165.292 323.813 -165.292 325.103Z" fill="black"/>
<path d="M716.708 330.103C716.708 331.392 715.662 332.437 714.373 332.437C713.084 332.437 712.039 331.392 712.039 330.103C712.039 328.813 713.084 327.768 714.373 327.768C715.662 327.768 716.708 328.813 716.708 330.103Z" fill="black"/>
<path d="M-165.292 368.987C-165.292 370.276 -166.338 371.321 -167.627 371.321C-168.916 371.321 -169.961 370.276 -169.961 368.987C-169.961 367.697 -168.916 366.652 -167.627 366.652C-166.338 366.652 -165.292 367.697 -165.292 368.987Z" fill="black"/>
<path d="M716.708 373.987C716.708 375.276 715.662 376.321 714.373 376.321C713.084 376.321 712.039 375.276 712.039 373.987C712.039 372.697 713.084 371.652 714.373 371.652C715.662 371.652 716.708 372.697 716.708 373.987Z" fill="black"/>
<path d="M-165.292 412.871C-165.292 414.16 -166.338 415.205 -167.627 415.205C-168.916 415.205 -169.961 414.16 -169.961 412.871C-169.961 411.582 -168.916 410.536 -167.627 410.536C-166.338 410.536 -165.292 411.582 -165.292 412.871Z" fill="black"/>
<path d="M716.708 417.871C716.708 419.16 715.662 420.205 714.373 420.205C713.084 420.205 712.039 419.16 712.039 417.871C712.039 416.582 713.084 415.536 714.373 415.536C715.662 415.536 716.708 416.582 716.708 417.871Z" fill="black"/>
<path d="M-165.292 456.755C-165.292 458.044 -166.338 459.089 -167.627 459.089C-168.916 459.089 -169.961 458.044 -169.961 456.755C-169.961 455.466 -168.916 454.421 -167.627 454.421C-166.338 454.421 -165.292 455.466 -165.292 456.755Z" fill="black"/>
<path d="M716.708 461.755C716.708 463.044 715.662 464.089 714.373 464.089C713.084 464.089 712.039 463.044 712.039 461.755C712.039 460.466 713.084 459.421 714.373 459.421C715.662 459.421 716.708 460.466 716.708 461.755Z" fill="black"/>
<path d="M-165.292 500.639C-165.292 501.928 -166.338 502.973 -167.627 502.973C-168.916 502.973 -169.961 501.928 -169.961 500.639C-169.961 499.35 -168.916 498.305 -167.627 498.305C-166.338 498.305 -165.292 499.35 -165.292 500.639Z" fill="black"/>
<path d="M716.708 505.639C716.708 506.928 715.662 507.973 714.373 507.973C713.084 507.973 712.039 506.928 712.039 505.639C712.039 504.35 713.084 503.305 714.373 503.305C715.662 503.305 716.708 504.35 716.708 505.639Z" fill="black"/>
<path d="M-165.292 544.523C-165.292 545.812 -166.338 546.857 -167.627 546.857C-168.916 546.857 -169.961 545.812 -169.961 544.523C-169.961 543.234 -168.916 542.189 -167.627 542.189C-166.338 542.189 -165.292 543.234 -165.292 544.523Z" fill="black"/>
<path d="M716.708 549.523C716.708 550.812 715.662 551.857 714.373 551.857C713.084 551.857 712.039 550.812 712.039 549.523C712.039 548.234 713.084 547.189 714.373 547.189C715.662 547.189 716.708 548.234 716.708 549.523Z" fill="black"/>
<path d="M-165.292 588.407C-165.292 589.696 -166.338 590.741 -167.627 590.741C-168.916 590.741 -169.961 589.696 -169.961 588.407C-169.961 587.118 -168.916 586.073 -167.627 586.073C-166.338 586.073 -165.292 587.118 -165.292 588.407Z" fill="black"/>
<path d="M716.708 593.407C716.708 594.696 715.662 595.741 714.373 595.741C713.084 595.741 712.039 594.696 712.039 593.407C712.039 592.118 713.084 591.073 714.373 591.073C715.662 591.073 716.708 592.118 716.708 593.407Z" fill="black"/>
<path d="M-165.292 632.291C-165.292 633.581 -166.338 634.626 -167.627 634.626C-168.916 634.626 -169.961 633.581 -169.961 632.291C-169.961 631.002 -168.916 629.957 -167.627 629.957C-166.338 629.957 -165.292 631.002 -165.292 632.291Z" fill="black"/>
<path d="M716.708 637.291C716.708 638.581 715.662 639.626 714.373 639.626C713.084 639.626 712.039 638.581 712.039 637.291C712.039 636.002 713.084 634.957 714.373 634.957C715.662 634.957 716.708 636.002 716.708 637.291Z" fill="black"/>
<path d="M-165.292 676.175C-165.292 677.465 -166.338 678.51 -167.627 678.51C-168.916 678.51 -169.961 677.465 -169.961 676.175C-169.961 674.886 -168.916 673.841 -167.627 673.841C-166.338 673.841 -165.292 674.886 -165.292 676.175Z" fill="black"/>
<path d="M716.708 681.175C716.708 682.465 715.662 683.51 714.373 683.51C713.084 683.51 712.039 682.465 712.039 681.175C712.039 679.886 713.084 678.841 714.373 678.841C715.662 678.841 716.708 679.886 716.708 681.175Z" fill="black"/>
<path d="M-116.273 237.334C-116.273 238.623 -117.318 239.669 -118.607 239.669C-119.896 239.669 -120.941 238.623 -120.941 237.334C-120.941 236.045 -119.896 235 -118.607 235C-117.318 235 -116.273 236.045 -116.273 237.334Z" fill="black"/>
<path d="M765.727 242.334C765.727 243.623 764.682 244.669 763.393 244.669C762.104 244.669 761.058 243.623 761.058 242.334C761.058 241.045 762.104 240 763.393 240C764.682 240 765.727 241.045 765.727 242.334Z" fill="black"/>
<path d="M-116.273 281.218C-116.273 282.508 -117.318 283.553 -118.607 283.553C-119.896 283.553 -120.941 282.508 -120.941 281.218C-120.941 279.929 -119.896 278.884 -118.607 278.884C-117.318 278.884 -116.273 279.929 -116.273 281.218Z" fill="black"/>
<path d="M765.727 286.218C765.727 287.508 764.682 288.553 763.393 288.553C762.104 288.553 761.058 287.508 761.058 286.218C761.058 284.929 762.104 283.884 763.393 283.884C764.682 283.884 765.727 284.929 765.727 286.218Z" fill="black"/>
<path d="M-116.273 325.103C-116.273 326.392 -117.318 327.437 -118.607 327.437C-119.896 327.437 -120.941 326.392 -120.941 325.103C-120.941 323.813 -119.896 322.768 -118.607 322.768C-117.318 322.768 -116.273 323.813 -116.273 325.103Z" fill="black"/>
<path d="M765.727 330.103C765.727 331.392 764.682 332.437 763.393 332.437C762.104 332.437 761.058 331.392 761.058 330.103C761.058 328.813 762.104 327.768 763.393 327.768C764.682 327.768 765.727 328.813 765.727 330.103Z" fill="black"/>
<path d="M-116.273 368.987C-116.273 370.276 -117.318 371.321 -118.607 371.321C-119.896 371.321 -120.941 370.276 -120.941 368.987C-120.941 367.697 -119.896 366.652 -118.607 366.652C-117.318 366.652 -116.273 367.697 -116.273 368.987Z" fill="black"/>
<path d="M765.727 373.987C765.727 375.276 764.682 376.321 763.393 376.321C762.104 376.321 761.058 375.276 761.058 373.987C761.058 372.697 762.104 371.652 763.393 371.652C764.682 371.652 765.727 372.697 765.727 373.987Z" fill="black"/>
<path d="M-116.273 412.871C-116.273 414.16 -117.318 415.205 -118.607 415.205C-119.896 415.205 -120.941 414.16 -120.941 412.871C-120.941 411.582 -119.896 410.536 -118.607 410.536C-117.318 410.536 -116.273 411.582 -116.273 412.871Z" fill="black"/>
<path d="M765.727 417.871C765.727 419.16 764.682 420.205 763.393 420.205C762.104 420.205 761.058 419.16 761.058 417.871C761.058 416.582 762.104 415.536 763.393 415.536C764.682 415.536 765.727 416.582 765.727 417.871Z" fill="black"/>
<path d="M-116.273 456.755C-116.273 458.044 -117.318 459.089 -118.607 459.089C-119.896 459.089 -120.941 458.044 -120.941 456.755C-120.941 455.466 -119.896 454.421 -118.607 454.421C-117.318 454.421 -116.273 455.466 -116.273 456.755Z" fill="black"/>
<path d="M765.727 461.755C765.727 463.044 764.682 464.089 763.393 464.089C762.104 464.089 761.058 463.044 761.058 461.755C761.058 460.466 762.104 459.421 763.393 459.421C764.682 459.421 765.727 460.466 765.727 461.755Z" fill="black"/>
<path d="M-116.273 500.639C-116.273 501.928 -117.318 502.973 -118.607 502.973C-119.896 502.973 -120.941 501.928 -120.941 500.639C-120.941 499.35 -119.896 498.305 -118.607 498.305C-117.318 498.305 -116.273 499.35 -116.273 500.639Z" fill="black"/>
<path d="M765.727 505.639C765.727 506.928 764.682 507.973 763.393 507.973C762.104 507.973 761.058 506.928 761.058 505.639C761.058 504.35 762.104 503.305 763.393 503.305C764.682 503.305 765.727 504.35 765.727 505.639Z" fill="black"/>
<path d="M-116.273 544.523C-116.273 545.812 -117.318 546.857 -118.607 546.857C-119.896 546.857 -120.941 545.812 -120.941 544.523C-120.941 543.234 -119.896 542.189 -118.607 542.189C-117.318 542.189 -116.273 543.234 -116.273 544.523Z" fill="black"/>
<path d="M765.727 549.523C765.727 550.812 764.682 551.857 763.393 551.857C762.104 551.857 761.058 550.812 761.058 549.523C761.058 548.234 762.104 547.189 763.393 547.189C764.682 547.189 765.727 548.234 765.727 549.523Z" fill="black"/>
<path d="M-116.273 588.407C-116.273 589.696 -117.318 590.741 -118.607 590.741C-119.896 590.741 -120.941 589.696 -120.941 588.407C-120.941 587.118 -119.896 586.073 -118.607 586.073C-117.318 586.073 -116.273 587.118 -116.273 588.407Z" fill="black"/>
<path d="M765.727 593.407C765.727 594.696 764.682 595.741 763.393 595.741C762.104 595.741 761.058 594.696 761.058 593.407C761.058 592.118 762.104 591.073 763.393 591.073C764.682 591.073 765.727 592.118 765.727 593.407Z" fill="black"/>
<path d="M-116.273 632.291C-116.273 633.581 -117.318 634.626 -118.607 634.626C-119.896 634.626 -120.941 633.581 -120.941 632.291C-120.941 631.002 -119.896 629.957 -118.607 629.957C-117.318 629.957 -116.273 631.002 -116.273 632.291Z" fill="black"/>
<path d="M765.727 637.291C765.727 638.581 764.682 639.626 763.393 639.626C762.104 639.626 761.058 638.581 761.058 637.291C761.058 636.002 762.104 634.957 763.393 634.957C764.682 634.957 765.727 636.002 765.727 637.291Z" fill="black"/>
<path d="M-116.273 676.175C-116.273 677.465 -117.318 678.51 -118.607 678.51C-119.896 678.51 -120.941 677.465 -120.941 676.175C-120.941 674.886 -119.896 673.841 -118.607 673.841C-117.318 673.841 -116.273 674.886 -116.273 676.175Z" fill="black"/>
<path d="M765.727 681.175C765.727 682.465 764.682 683.51 763.393 683.51C762.104 683.51 761.058 682.465 761.058 681.175C761.058 679.886 762.104 678.841 763.393 678.841C764.682 678.841 765.727 679.886 765.727 681.175Z" fill="black"/>
<path d="M-67.2535 237.334C-67.2535 238.623 -68.2986 239.669 -69.5878 239.669C-70.8769 239.669 -71.922 238.623 -71.922 237.334C-71.922 236.045 -70.8769 235 -69.5878 235C-68.2986 235 -67.2535 236.045 -67.2535 237.334Z" fill="black"/>
<path d="M814.747 242.334C814.747 243.623 813.701 244.669 812.412 244.669C811.123 244.669 810.078 243.623 810.078 242.334C810.078 241.045 811.123 240 812.412 240C813.701 240 814.747 241.045 814.747 242.334Z" fill="black"/>
<path d="M-67.2535 281.218C-67.2535 282.508 -68.2986 283.553 -69.5878 283.553C-70.8769 283.553 -71.922 282.508 -71.922 281.218C-71.922 279.929 -70.8769 278.884 -69.5878 278.884C-68.2986 278.884 -67.2535 279.929 -67.2535 281.218Z" fill="black"/>
<path d="M814.747 286.218C814.747 287.508 813.701 288.553 812.412 288.553C811.123 288.553 810.078 287.508 810.078 286.218C810.078 284.929 811.123 283.884 812.412 283.884C813.701 283.884 814.747 284.929 814.747 286.218Z" fill="black"/>
<path d="M-67.2535 325.103C-67.2535 326.392 -68.2986 327.437 -69.5878 327.437C-70.8769 327.437 -71.922 326.392 -71.922 325.103C-71.922 323.813 -70.8769 322.768 -69.5878 322.768C-68.2986 322.768 -67.2535 323.813 -67.2535 325.103Z" fill="black"/>
<path d="M814.747 330.103C814.747 331.392 813.701 332.437 812.412 332.437C811.123 332.437 810.078 331.392 810.078 330.103C810.078 328.813 811.123 327.768 812.412 327.768C813.701 327.768 814.747 328.813 814.747 330.103Z" fill="black"/>
<path d="M-67.2535 368.987C-67.2535 370.276 -68.2986 371.321 -69.5878 371.321C-70.8769 371.321 -71.922 370.276 -71.922 368.987C-71.922 367.697 -70.8769 366.652 -69.5878 366.652C-68.2986 366.652 -67.2535 367.697 -67.2535 368.987Z" fill="black"/>
<path d="M814.747 373.987C814.747 375.276 813.701 376.321 812.412 376.321C811.123 376.321 810.078 375.276 810.078 373.987C810.078 372.697 811.123 371.652 812.412 371.652C813.701 371.652 814.747 372.697 814.747 373.987Z" fill="black"/>
<path d="M-67.2535 412.871C-67.2535 414.16 -68.2986 415.205 -69.5878 415.205C-70.8769 415.205 -71.922 414.16 -71.922 412.871C-71.922 411.582 -70.8769 410.536 -69.5878 410.536C-68.2986 410.536 -67.2535 411.582 -67.2535 412.871Z" fill="black"/>
<path d="M814.747 417.871C814.747 419.16 813.701 420.205 812.412 420.205C811.123 420.205 810.078 419.16 810.078 417.871C810.078 416.582 811.123 415.536 812.412 415.536C813.701 415.536 814.747 416.582 814.747 417.871Z" fill="black"/>
<path d="M-67.2535 456.755C-67.2535 458.044 -68.2986 459.089 -69.5878 459.089C-70.8769 459.089 -71.922 458.044 -71.922 456.755C-71.922 455.466 -70.8769 454.421 -69.5878 454.421C-68.2986 454.421 -67.2535 455.466 -67.2535 456.755Z" fill="black"/>
<path d="M814.747 461.755C814.747 463.044 813.701 464.089 812.412 464.089C811.123 464.089 810.078 463.044 810.078 461.755C810.078 460.466 811.123 459.421 812.412 459.421C813.701 459.421 814.747 460.466 814.747 461.755Z" fill="black"/>
<path d="M-67.2535 500.639C-67.2535 501.928 -68.2986 502.973 -69.5878 502.973C-70.8769 502.973 -71.922 501.928 -71.922 500.639C-71.922 499.35 -70.8769 498.305 -69.5878 498.305C-68.2986 498.305 -67.2535 499.35 -67.2535 500.639Z" fill="black"/>
<path d="M814.747 505.639C814.747 506.928 813.701 507.973 812.412 507.973C811.123 507.973 810.078 506.928 810.078 505.639C810.078 504.35 811.123 503.305 812.412 503.305C813.701 503.305 814.747 504.35 814.747 505.639Z" fill="black"/>
<path d="M-67.2535 544.523C-67.2535 545.812 -68.2986 546.857 -69.5878 546.857C-70.8769 546.857 -71.922 545.812 -71.922 544.523C-71.922 543.234 -70.8769 542.189 -69.5878 542.189C-68.2986 542.189 -67.2535 543.234 -67.2535 544.523Z" fill="black"/>
<path d="M814.747 549.523C814.747 550.812 813.701 551.857 812.412 551.857C811.123 551.857 810.078 550.812 810.078 549.523C810.078 548.234 811.123 547.189 812.412 547.189C813.701 547.189 814.747 548.234 814.747 549.523Z" fill="black"/>
<path d="M-67.2535 588.407C-67.2535 589.696 -68.2986 590.741 -69.5878 590.741C-70.8769 590.741 -71.922 589.696 -71.922 588.407C-71.922 587.118 -70.8769 586.073 -69.5878 586.073C-68.2986 586.073 -67.2535 587.118 -67.2535 588.407Z" fill="black"/>
<path d="M814.747 593.407C814.747 594.696 813.701 595.741 812.412 595.741C811.123 595.741 810.078 594.696 810.078 593.407C810.078 592.118 811.123 591.073 812.412 591.073C813.701 591.073 814.747 592.118 814.747 593.407Z" fill="black"/>
<path d="M-67.2535 632.291C-67.2535 633.581 -68.2986 634.626 -69.5878 634.626C-70.8769 634.626 -71.922 633.581 -71.922 632.291C-71.922 631.002 -70.8769 629.957 -69.5878 629.957C-68.2986 629.957 -67.2535 631.002 -67.2535 632.291Z" fill="black"/>
<path d="M814.747 637.291C814.747 638.581 813.701 639.626 812.412 639.626C811.123 639.626 810.078 638.581 810.078 637.291C810.078 636.002 811.123 634.957 812.412 634.957C813.701 634.957 814.747 636.002 814.747 637.291Z" fill="black"/>
<path d="M-67.2535 676.175C-67.2535 677.465 -68.2986 678.51 -69.5878 678.51C-70.8769 678.51 -71.922 677.465 -71.922 676.175C-71.922 674.886 -70.8769 673.841 -69.5878 673.841C-68.2986 673.841 -67.2535 674.886 -67.2535 676.175Z" fill="black"/>
<path d="M814.747 681.175C814.747 682.465 813.701 683.51 812.412 683.51C811.123 683.51 810.078 682.465 810.078 681.175C810.078 679.886 811.123 678.841 812.412 678.841C813.701 678.841 814.747 679.886 814.747 681.175Z" fill="black"/>
<path d="M-18.234 237.334C-18.234 238.623 -19.2791 239.669 -20.5683 239.669C-21.8574 239.669 -22.9025 238.623 -22.9025 237.334C-22.9025 236.045 -21.8574 235 -20.5683 235C-19.2791 235 -18.234 236.045 -18.234 237.334Z" fill="black"/>
<path d="M863.766 242.334C863.766 243.623 862.721 244.669 861.432 244.669C860.143 244.669 859.098 243.623 859.098 242.334C859.098 241.045 860.143 240 861.432 240C862.721 240 863.766 241.045 863.766 242.334Z" fill="black"/>
<path d="M-18.234 281.218C-18.234 282.508 -19.2791 283.553 -20.5683 283.553C-21.8574 283.553 -22.9025 282.508 -22.9025 281.218C-22.9025 279.929 -21.8574 278.884 -20.5683 278.884C-19.2791 278.884 -18.234 279.929 -18.234 281.218Z" fill="black"/>
<path d="M863.766 286.218C863.766 287.508 862.721 288.553 861.432 288.553C860.143 288.553 859.098 287.508 859.098 286.218C859.098 284.929 860.143 283.884 861.432 283.884C862.721 283.884 863.766 284.929 863.766 286.218Z" fill="black"/>
<path d="M-18.234 325.103C-18.234 326.392 -19.2791 327.437 -20.5683 327.437C-21.8574 327.437 -22.9025 326.392 -22.9025 325.103C-22.9025 323.813 -21.8574 322.768 -20.5683 322.768C-19.2791 322.768 -18.234 323.813 -18.234 325.103Z" fill="black"/>
<path d="M863.766 330.103C863.766 331.392 862.721 332.437 861.432 332.437C860.143 332.437 859.098 331.392 859.098 330.103C859.098 328.813 860.143 327.768 861.432 327.768C862.721 327.768 863.766 328.813 863.766 330.103Z" fill="black"/>
<path d="M-18.234 368.987C-18.234 370.276 -19.2791 371.321 -20.5683 371.321C-21.8574 371.321 -22.9025 370.276 -22.9025 368.987C-22.9025 367.697 -21.8574 366.652 -20.5683 366.652C-19.2791 366.652 -18.234 367.697 -18.234 368.987Z" fill="black"/>
<path d="M863.766 373.987C863.766 375.276 862.721 376.321 861.432 376.321C860.143 376.321 859.098 375.276 859.098 373.987C859.098 372.697 860.143 371.652 861.432 371.652C862.721 371.652 863.766 372.697 863.766 373.987Z" fill="black"/>
<path d="M-18.234 412.871C-18.234 414.16 -19.2791 415.205 -20.5683 415.205C-21.8574 415.205 -22.9025 414.16 -22.9025 412.871C-22.9025 411.582 -21.8574 410.536 -20.5683 410.536C-19.2791 410.536 -18.234 411.582 -18.234 412.871Z" fill="black"/>
<path d="M863.766 417.871C863.766 419.16 862.721 420.205 861.432 420.205C860.143 420.205 859.098 419.16 859.098 417.871C859.098 416.582 860.143 415.536 861.432 415.536C862.721 415.536 863.766 416.582 863.766 417.871Z" fill="black"/>
<path d="M-18.234 456.755C-18.234 458.044 -19.2791 459.089 -20.5683 459.089C-21.8574 459.089 -22.9025 458.044 -22.9025 456.755C-22.9025 455.466 -21.8574 454.421 -20.5683 454.421C-19.2791 454.421 -18.234 455.466 -18.234 456.755Z" fill="black"/>
<path d="M863.766 461.755C863.766 463.044 862.721 464.089 861.432 464.089C860.143 464.089 859.098 463.044 859.098 461.755C859.098 460.466 860.143 459.421 861.432 459.421C862.721 459.421 863.766 460.466 863.766 461.755Z" fill="black"/>
<path d="M-18.234 500.639C-18.234 501.928 -19.2791 502.973 -20.5683 502.973C-21.8574 502.973 -22.9025 501.928 -22.9025 500.639C-22.9025 499.35 -21.8574 498.305 -20.5683 498.305C-19.2791 498.305 -18.234 499.35 -18.234 500.639Z" fill="black"/>
<path d="M863.766 505.639C863.766 506.928 862.721 507.973 861.432 507.973C860.143 507.973 859.098 506.928 859.098 505.639C859.098 504.35 860.143 503.305 861.432 503.305C862.721 503.305 863.766 504.35 863.766 505.639Z" fill="black"/>
<path d="M-18.234 544.523C-18.234 545.812 -19.2791 546.857 -20.5683 546.857C-21.8574 546.857 -22.9025 545.812 -22.9025 544.523C-22.9025 543.234 -21.8574 542.189 -20.5683 542.189C-19.2791 542.189 -18.234 543.234 -18.234 544.523Z" fill="black"/>
<path d="M863.766 549.523C863.766 550.812 862.721 551.857 861.432 551.857C860.143 551.857 859.098 550.812 859.098 549.523C859.098 548.234 860.143 547.189 861.432 547.189C862.721 547.189 863.766 548.234 863.766 549.523Z" fill="black"/>
<path d="M-18.234 588.407C-18.234 589.696 -19.2791 590.741 -20.5683 590.741C-21.8574 590.741 -22.9025 589.696 -22.9025 588.407C-22.9025 587.118 -21.8574 586.073 -20.5683 586.073C-19.2791 586.073 -18.234 587.118 -18.234 588.407Z" fill="black"/>
<path d="M863.766 593.407C863.766 594.696 862.721 595.741 861.432 595.741C860.143 595.741 859.098 594.696 859.098 593.407C859.098 592.118 860.143 591.073 861.432 591.073C862.721 591.073 863.766 592.118 863.766 593.407Z" fill="black"/>
<path d="M-18.234 632.291C-18.234 633.581 -19.2791 634.626 -20.5683 634.626C-21.8574 634.626 -22.9025 633.581 -22.9025 632.291C-22.9025 631.002 -21.8574 629.957 -20.5683 629.957C-19.2791 629.957 -18.234 631.002 -18.234 632.291Z" fill="black"/>
<path d="M863.766 637.291C863.766 638.581 862.721 639.626 861.432 639.626C860.143 639.626 859.098 638.581 859.098 637.291C859.098 636.002 860.143 634.957 861.432 634.957C862.721 634.957 863.766 636.002 863.766 637.291Z" fill="black"/>
<path d="M-18.234 676.175C-18.234 677.465 -19.2791 678.51 -20.5683 678.51C-21.8574 678.51 -22.9025 677.465 -22.9025 676.175C-22.9025 674.886 -21.8574 673.841 -20.5683 673.841C-19.2791 673.841 -18.234 674.886 -18.234 676.175Z" fill="black"/>
<path d="M863.766 681.175C863.766 682.465 862.721 683.51 861.432 683.51C860.143 683.51 859.098 682.465 859.098 681.175C859.098 679.886 860.143 678.841 861.432 678.841C862.721 678.841 863.766 679.886 863.766 681.175Z" fill="black"/>
<path d="M30.7855 237.334C30.7855 238.623 29.7404 239.669 28.4513 239.669C27.1621 239.669 26.117 238.623 26.117 237.334C26.117 236.045 27.1621 235 28.4513 235C29.7404 235 30.7855 236.045 30.7855 237.334Z" fill="black"/>
<path d="M912.786 242.334C912.786 243.623 911.74 244.669 910.451 244.669C909.162 244.669 908.117 243.623 908.117 242.334C908.117 241.045 909.162 240 910.451 240C911.74 240 912.786 241.045 912.786 242.334Z" fill="black"/>
<path d="M30.7855 281.218C30.7855 282.508 29.7404 283.553 28.4513 283.553C27.1621 283.553 26.117 282.508 26.117 281.218C26.117 279.929 27.1621 278.884 28.4513 278.884C29.7404 278.884 30.7855 279.929 30.7855 281.218Z" fill="black"/>
<path d="M912.786 286.218C912.786 287.508 911.74 288.553 910.451 288.553C909.162 288.553 908.117 287.508 908.117 286.218C908.117 284.929 909.162 283.884 910.451 283.884C911.74 283.884 912.786 284.929 912.786 286.218Z" fill="black"/>
<path d="M30.7855 325.103C30.7855 326.392 29.7404 327.437 28.4513 327.437C27.1621 327.437 26.117 326.392 26.117 325.103C26.117 323.813 27.1621 322.768 28.4513 322.768C29.7404 322.768 30.7855 323.813 30.7855 325.103Z" fill="black"/>
<path d="M912.786 330.103C912.786 331.392 911.74 332.437 910.451 332.437C909.162 332.437 908.117 331.392 908.117 330.103C908.117 328.813 909.162 327.768 910.451 327.768C911.74 327.768 912.786 328.813 912.786 330.103Z" fill="black"/>
<path d="M30.7855 368.987C30.7855 370.276 29.7404 371.321 28.4513 371.321C27.1621 371.321 26.117 370.276 26.117 368.987C26.117 367.697 27.1621 366.652 28.4513 366.652C29.7404 366.652 30.7855 367.697 30.7855 368.987Z" fill="black"/>
<path d="M912.786 373.987C912.786 375.276 911.74 376.321 910.451 376.321C909.162 376.321 908.117 375.276 908.117 373.987C908.117 372.697 909.162 371.652 910.451 371.652C911.74 371.652 912.786 372.697 912.786 373.987Z" fill="black"/>
<path d="M30.7855 412.871C30.7855 414.16 29.7404 415.205 28.4513 415.205C27.1621 415.205 26.117 414.16 26.117 412.871C26.117 411.582 27.1621 410.536 28.4513 410.536C29.7404 410.536 30.7855 411.582 30.7855 412.871Z" fill="black"/>
<path d="M912.786 417.871C912.786 419.16 911.74 420.205 910.451 420.205C909.162 420.205 908.117 419.16 908.117 417.871C908.117 416.582 909.162 415.536 910.451 415.536C911.74 415.536 912.786 416.582 912.786 417.871Z" fill="black"/>
<path d="M30.7855 456.755C30.7855 458.044 29.7404 459.089 28.4513 459.089C27.1621 459.089 26.117 458.044 26.117 456.755C26.117 455.466 27.1621 454.421 28.4513 454.421C29.7404 454.421 30.7855 455.466 30.7855 456.755Z" fill="black"/>
<path d="M912.786 461.755C912.786 463.044 911.74 464.089 910.451 464.089C909.162 464.089 908.117 463.044 908.117 461.755C908.117 460.466 909.162 459.421 910.451 459.421C911.74 459.421 912.786 460.466 912.786 461.755Z" fill="black"/>
<path d="M30.7855 500.639C30.7855 501.928 29.7404 502.973 28.4513 502.973C27.1621 502.973 26.117 501.928 26.117 500.639C26.117 499.35 27.1621 498.305 28.4513 498.305C29.7404 498.305 30.7855 499.35 30.7855 500.639Z" fill="black"/>
<path d="M912.786 505.639C912.786 506.928 911.74 507.973 910.451 507.973C909.162 507.973 908.117 506.928 908.117 505.639C908.117 504.35 909.162 503.305 910.451 503.305C911.74 503.305 912.786 504.35 912.786 505.639Z" fill="black"/>
<path d="M30.7855 544.523C30.7855 545.812 29.7404 546.857 28.4513 546.857C27.1621 546.857 26.117 545.812 26.117 544.523C26.117 543.234 27.1621 542.189 28.4513 542.189C29.7404 542.189 30.7855 543.234 30.7855 544.523Z" fill="black"/>
<path d="M912.786 549.523C912.786 550.812 911.74 551.857 910.451 551.857C909.162 551.857 908.117 550.812 908.117 549.523C908.117 548.234 909.162 547.189 910.451 547.189C911.74 547.189 912.786 548.234 912.786 549.523Z" fill="black"/>
<path d="M30.7855 588.407C30.7855 589.696 29.7404 590.741 28.4513 590.741C27.1621 590.741 26.117 589.696 26.117 588.407C26.117 587.118 27.1621 586.073 28.4513 586.073C29.7404 586.073 30.7855 587.118 30.7855 588.407Z" fill="black"/>
<path d="M912.786 593.407C912.786 594.696 911.74 595.741 910.451 595.741C909.162 595.741 908.117 594.696 908.117 593.407C908.117 592.118 909.162 591.073 910.451 591.073C911.74 591.073 912.786 592.118 912.786 593.407Z" fill="black"/>
<path d="M30.7855 632.291C30.7855 633.581 29.7404 634.626 28.4513 634.626C27.1621 634.626 26.117 633.581 26.117 632.291C26.117 631.002 27.1621 629.957 28.4513 629.957C29.7404 629.957 30.7855 631.002 30.7855 632.291Z" fill="black"/>
<path d="M912.786 637.291C912.786 638.581 911.74 639.626 910.451 639.626C909.162 639.626 908.117 638.581 908.117 637.291C908.117 636.002 909.162 634.957 910.451 634.957C911.74 634.957 912.786 636.002 912.786 637.291Z" fill="black"/>
<path d="M30.7855 676.175C30.7855 677.465 29.7404 678.51 28.4513 678.51C27.1621 678.51 26.117 677.465 26.117 676.175C26.117 674.886 27.1621 673.841 28.4513 673.841C29.7404 673.841 30.7855 674.886 30.7855 676.175Z" fill="black"/>
<path d="M912.786 681.175C912.786 682.465 911.74 683.51 910.451 683.51C909.162 683.51 908.117 682.465 908.117 681.175C908.117 679.886 909.162 678.841 910.451 678.841C911.74 678.841 912.786 679.886 912.786 681.175Z" fill="black"/>
<path d="M79.805 237.334C79.805 238.623 78.7599 239.669 77.4708 239.669C76.1816 239.669 75.1365 238.623 75.1365 237.334C75.1365 236.045 76.1816 235 77.4708 235C78.7599 235 79.805 236.045 79.805 237.334Z" fill="black"/>
<path d="M961.805 242.334C961.805 243.623 960.76 244.669 959.471 244.669C958.182 244.669 957.136 243.623 957.136 242.334C957.136 241.045 958.182 240 959.471 240C960.76 240 961.805 241.045 961.805 242.334Z" fill="black"/>
<path d="M79.805 281.218C79.805 282.508 78.7599 283.553 77.4708 283.553C76.1816 283.553 75.1365 282.508 75.1365 281.218C75.1365 279.929 76.1816 278.884 77.4708 278.884C78.7599 278.884 79.805 279.929 79.805 281.218Z" fill="black"/>
<path d="M961.805 286.218C961.805 287.508 960.76 288.553 959.471 288.553C958.182 288.553 957.136 287.508 957.136 286.218C957.136 284.929 958.182 283.884 959.471 283.884C960.76 283.884 961.805 284.929 961.805 286.218Z" fill="black"/>
<path d="M79.805 325.103C79.805 326.392 78.7599 327.437 77.4708 327.437C76.1816 327.437 75.1365 326.392 75.1365 325.103C75.1365 323.813 76.1816 322.768 77.4708 322.768C78.7599 322.768 79.805 323.813 79.805 325.103Z" fill="black"/>
<path d="M961.805 330.103C961.805 331.392 960.76 332.437 959.471 332.437C958.182 332.437 957.136 331.392 957.136 330.103C957.136 328.813 958.182 327.768 959.471 327.768C960.76 327.768 961.805 328.813 961.805 330.103Z" fill="black"/>
<path d="M79.805 368.987C79.805 370.276 78.7599 371.321 77.4708 371.321C76.1816 371.321 75.1365 370.276 75.1365 368.987C75.1365 367.697 76.1816 366.652 77.4708 366.652C78.7599 366.652 79.805 367.697 79.805 368.987Z" fill="black"/>
<path d="M961.805 373.987C961.805 375.276 960.76 376.321 959.471 376.321C958.182 376.321 957.136 375.276 957.136 373.987C957.136 372.697 958.182 371.652 959.471 371.652C960.76 371.652 961.805 372.697 961.805 373.987Z" fill="black"/>
<path d="M79.805 412.871C79.805 414.16 78.7599 415.205 77.4708 415.205C76.1816 415.205 75.1365 414.16 75.1365 412.871C75.1365 411.582 76.1816 410.536 77.4708 410.536C78.7599 410.536 79.805 411.582 79.805 412.871Z" fill="black"/>
<path d="M961.805 417.871C961.805 419.16 960.76 420.205 959.471 420.205C958.182 420.205 957.136 419.16 957.136 417.871C957.136 416.582 958.182 415.536 959.471 415.536C960.76 415.536 961.805 416.582 961.805 417.871Z" fill="black"/>
<path d="M79.805 456.755C79.805 458.044 78.7599 459.089 77.4708 459.089C76.1816 459.089 75.1365 458.044 75.1365 456.755C75.1365 455.466 76.1816 454.421 77.4708 454.421C78.7599 454.421 79.805 455.466 79.805 456.755Z" fill="black"/>
<path d="M961.805 461.755C961.805 463.044 960.76 464.089 959.471 464.089C958.182 464.089 957.136 463.044 957.136 461.755C957.136 460.466 958.182 459.421 959.471 459.421C960.76 459.421 961.805 460.466 961.805 461.755Z" fill="black"/>
<path d="M79.805 500.639C79.805 501.928 78.7599 502.973 77.4708 502.973C76.1816 502.973 75.1365 501.928 75.1365 500.639C75.1365 499.35 76.1816 498.305 77.4708 498.305C78.7599 498.305 79.805 499.35 79.805 500.639Z" fill="black"/>
<path d="M961.805 505.639C961.805 506.928 960.76 507.973 959.471 507.973C958.182 507.973 957.136 506.928 957.136 505.639C957.136 504.35 958.182 503.305 959.471 503.305C960.76 503.305 961.805 504.35 961.805 505.639Z" fill="black"/>
<path d="M79.805 544.523C79.805 545.812 78.7599 546.857 77.4708 546.857C76.1816 546.857 75.1365 545.812 75.1365 544.523C75.1365 543.234 76.1816 542.189 77.4708 542.189C78.7599 542.189 79.805 543.234 79.805 544.523Z" fill="black"/>
<path d="M961.805 549.523C961.805 550.812 960.76 551.857 959.471 551.857C958.182 551.857 957.136 550.812 957.136 549.523C957.136 548.234 958.182 547.189 959.471 547.189C960.76 547.189 961.805 548.234 961.805 549.523Z" fill="black"/>
<path d="M79.805 588.407C79.805 589.696 78.7599 590.741 77.4708 590.741C76.1816 590.741 75.1365 589.696 75.1365 588.407C75.1365 587.118 76.1816 586.073 77.4708 586.073C78.7599 586.073 79.805 587.118 79.805 588.407Z" fill="black"/>
<path d="M961.805 593.407C961.805 594.696 960.76 595.741 959.471 595.741C958.182 595.741 957.136 594.696 957.136 593.407C957.136 592.118 958.182 591.073 959.471 591.073C960.76 591.073 961.805 592.118 961.805 593.407Z" fill="black"/>
<path d="M79.805 632.291C79.805 633.581 78.7599 634.626 77.4708 634.626C76.1816 634.626 75.1365 633.581 75.1365 632.291C75.1365 631.002 76.1816 629.957 77.4708 629.957C78.7599 629.957 79.805 631.002 79.805 632.291Z" fill="black"/>
<path d="M961.805 637.291C961.805 638.581 960.76 639.626 959.471 639.626C958.182 639.626 957.136 638.581 957.136 637.291C957.136 636.002 958.182 634.957 959.471 634.957C960.76 634.957 961.805 636.002 961.805 637.291Z" fill="black"/>
<path d="M79.805 676.175C79.805 677.465 78.7599 678.51 77.4708 678.51C76.1816 678.51 75.1365 677.465 75.1365 676.175C75.1365 674.886 76.1816 673.841 77.4708 673.841C78.7599 673.841 79.805 674.886 79.805 676.175Z" fill="black"/>
<path d="M961.805 681.175C961.805 682.465 960.76 683.51 959.471 683.51C958.182 683.51 957.136 682.465 957.136 681.175C957.136 679.886 958.182 678.841 959.471 678.841C960.76 678.841 961.805 679.886 961.805 681.175Z" fill="black"/>
<path d="M128.824 237.334C128.824 238.623 127.779 239.669 126.49 239.669C125.201 239.669 124.156 238.623 124.156 237.334C124.156 236.045 125.201 235 126.49 235C127.779 235 128.824 236.045 128.824 237.334Z" fill="black"/>
<path d="M1010.82 242.334C1010.82 243.623 1009.78 244.669 1008.49 244.669C1007.2 244.669 1006.16 243.623 1006.16 242.334C1006.16 241.045 1007.2 240 1008.49 240C1009.78 240 1010.82 241.045 1010.82 242.334Z" fill="black"/>
<path d="M128.824 281.218C128.824 282.508 127.779 283.553 126.49 283.553C125.201 283.553 124.156 282.508 124.156 281.218C124.156 279.929 125.201 278.884 126.49 278.884C127.779 278.884 128.824 279.929 128.824 281.218Z" fill="black"/>
<path d="M1010.82 286.218C1010.82 287.508 1009.78 288.553 1008.49 288.553C1007.2 288.553 1006.16 287.508 1006.16 286.218C1006.16 284.929 1007.2 283.884 1008.49 283.884C1009.78 283.884 1010.82 284.929 1010.82 286.218Z" fill="black"/>
<path d="M128.824 325.103C128.824 326.392 127.779 327.437 126.49 327.437C125.201 327.437 124.156 326.392 124.156 325.103C124.156 323.813 125.201 322.768 126.49 322.768C127.779 322.768 128.824 323.813 128.824 325.103Z" fill="black"/>
<path d="M1010.82 330.103C1010.82 331.392 1009.78 332.437 1008.49 332.437C1007.2 332.437 1006.16 331.392 1006.16 330.103C1006.16 328.813 1007.2 327.768 1008.49 327.768C1009.78 327.768 1010.82 328.813 1010.82 330.103Z" fill="black"/>
<path d="M128.824 368.987C128.824 370.276 127.779 371.321 126.49 371.321C125.201 371.321 124.156 370.276 124.156 368.987C124.156 367.697 125.201 366.652 126.49 366.652C127.779 366.652 128.824 367.697 128.824 368.987Z" fill="black"/>
<path d="M1010.82 373.987C1010.82 375.276 1009.78 376.321 1008.49 376.321C1007.2 376.321 1006.16 375.276 1006.16 373.987C1006.16 372.697 1007.2 371.652 1008.49 371.652C1009.78 371.652 1010.82 372.697 1010.82 373.987Z" fill="black"/>
<path d="M128.824 412.871C128.824 414.16 127.779 415.205 126.49 415.205C125.201 415.205 124.156 414.16 124.156 412.871C124.156 411.582 125.201 410.536 126.49 410.536C127.779 410.536 128.824 411.582 128.824 412.871Z" fill="black"/>
<path d="M1010.82 417.871C1010.82 419.16 1009.78 420.205 1008.49 420.205C1007.2 420.205 1006.16 419.16 1006.16 417.871C1006.16 416.582 1007.2 415.536 1008.49 415.536C1009.78 415.536 1010.82 416.582 1010.82 417.871Z" fill="black"/>
<path d="M128.824 456.755C128.824 458.044 127.779 459.089 126.49 459.089C125.201 459.089 124.156 458.044 124.156 456.755C124.156 455.466 125.201 454.421 126.49 454.421C127.779 454.421 128.824 455.466 128.824 456.755Z" fill="black"/>
<path d="M1010.82 461.755C1010.82 463.044 1009.78 464.089 1008.49 464.089C1007.2 464.089 1006.16 463.044 1006.16 461.755C1006.16 460.466 1007.2 459.421 1008.49 459.421C1009.78 459.421 1010.82 460.466 1010.82 461.755Z" fill="black"/>
<path d="M128.824 500.639C128.824 501.928 127.779 502.973 126.49 502.973C125.201 502.973 124.156 501.928 124.156 500.639C124.156 499.35 125.201 498.305 126.49 498.305C127.779 498.305 128.824 499.35 128.824 500.639Z" fill="black"/>
<path d="M1010.82 505.639C1010.82 506.928 1009.78 507.973 1008.49 507.973C1007.2 507.973 1006.16 506.928 1006.16 505.639C1006.16 504.35 1007.2 503.305 1008.49 503.305C1009.78 503.305 1010.82 504.35 1010.82 505.639Z" fill="black"/>
<path d="M128.824 544.523C128.824 545.812 127.779 546.857 126.49 546.857C125.201 546.857 124.156 545.812 124.156 544.523C124.156 543.234 125.201 542.189 126.49 542.189C127.779 542.189 128.824 543.234 128.824 544.523Z" fill="black"/>
<path d="M1010.82 549.523C1010.82 550.812 1009.78 551.857 1008.49 551.857C1007.2 551.857 1006.16 550.812 1006.16 549.523C1006.16 548.234 1007.2 547.189 1008.49 547.189C1009.78 547.189 1010.82 548.234 1010.82 549.523Z" fill="black"/>
<path d="M128.824 588.407C128.824 589.696 127.779 590.741 126.49 590.741C125.201 590.741 124.156 589.696 124.156 588.407C124.156 587.118 125.201 586.073 126.49 586.073C127.779 586.073 128.824 587.118 128.824 588.407Z" fill="black"/>
<path d="M1010.82 593.407C1010.82 594.696 1009.78 595.741 1008.49 595.741C1007.2 595.741 1006.16 594.696 1006.16 593.407C1006.16 592.118 1007.2 591.073 1008.49 591.073C1009.78 591.073 1010.82 592.118 1010.82 593.407Z" fill="black"/>
<path d="M128.824 632.291C128.824 633.581 127.779 634.626 126.49 634.626C125.201 634.626 124.156 633.581 124.156 632.291C124.156 631.002 125.201 629.957 126.49 629.957C127.779 629.957 128.824 631.002 128.824 632.291Z" fill="black"/>
<path d="M1010.82 637.291C1010.82 638.581 1009.78 639.626 1008.49 639.626C1007.2 639.626 1006.16 638.581 1006.16 637.291C1006.16 636.002 1007.2 634.957 1008.49 634.957C1009.78 634.957 1010.82 636.002 1010.82 637.291Z" fill="black"/>
<path d="M128.824 676.175C128.824 677.465 127.779 678.51 126.49 678.51C125.201 678.51 124.156 677.465 124.156 676.175C124.156 674.886 125.201 673.841 126.49 673.841C127.779 673.841 128.824 674.886 128.824 676.175Z" fill="black"/>
<path d="M1010.82 681.175C1010.82 682.465 1009.78 683.51 1008.49 683.51C1007.2 683.51 1006.16 682.465 1006.16 681.175C1006.16 679.886 1007.2 678.841 1008.49 678.841C1009.78 678.841 1010.82 679.886 1010.82 681.175Z" fill="black"/>
<path d="M177.844 237.334C177.844 238.623 176.799 239.669 175.51 239.669C174.221 239.669 173.175 238.623 173.175 237.334C173.175 236.045 174.221 235 175.51 235C176.799 235 177.844 236.045 177.844 237.334Z" fill="black"/>
<path d="M1059.84 242.334C1059.84 243.623 1058.8 244.669 1057.51 244.669C1056.22 244.669 1055.18 243.623 1055.18 242.334C1055.18 241.045 1056.22 240 1057.51 240C1058.8 240 1059.84 241.045 1059.84 242.334Z" fill="black"/>
<path d="M177.844 281.218C177.844 282.508 176.799 283.553 175.51 283.553C174.221 283.553 173.175 282.508 173.175 281.218C173.175 279.929 174.221 278.884 175.51 278.884C176.799 278.884 177.844 279.929 177.844 281.218Z" fill="black"/>
<path d="M1059.84 286.218C1059.84 287.508 1058.8 288.553 1057.51 288.553C1056.22 288.553 1055.18 287.508 1055.18 286.218C1055.18 284.929 1056.22 283.884 1057.51 283.884C1058.8 283.884 1059.84 284.929 1059.84 286.218Z" fill="black"/>
<path d="M177.844 325.103C177.844 326.392 176.799 327.437 175.51 327.437C174.221 327.437 173.175 326.392 173.175 325.103C173.175 323.813 174.221 322.768 175.51 322.768C176.799 322.768 177.844 323.813 177.844 325.103Z" fill="black"/>
<path d="M1059.84 330.103C1059.84 331.392 1058.8 332.437 1057.51 332.437C1056.22 332.437 1055.18 331.392 1055.18 330.103C1055.18 328.813 1056.22 327.768 1057.51 327.768C1058.8 327.768 1059.84 328.813 1059.84 330.103Z" fill="black"/>
<path d="M177.844 368.987C177.844 370.276 176.799 371.321 175.51 371.321C174.221 371.321 173.175 370.276 173.175 368.987C173.175 367.697 174.221 366.652 175.51 366.652C176.799 366.652 177.844 367.697 177.844 368.987Z" fill="black"/>
<path d="M1059.84 373.987C1059.84 375.276 1058.8 376.321 1057.51 376.321C1056.22 376.321 1055.18 375.276 1055.18 373.987C1055.18 372.697 1056.22 371.652 1057.51 371.652C1058.8 371.652 1059.84 372.697 1059.84 373.987Z" fill="black"/>
<path d="M177.844 412.871C177.844 414.16 176.799 415.205 175.51 415.205C174.221 415.205 173.175 414.16 173.175 412.871C173.175 411.582 174.221 410.536 175.51 410.536C176.799 410.536 177.844 411.582 177.844 412.871Z" fill="black"/>
<path d="M1059.84 417.871C1059.84 419.16 1058.8 420.205 1057.51 420.205C1056.22 420.205 1055.18 419.16 1055.18 417.871C1055.18 416.582 1056.22 415.536 1057.51 415.536C1058.8 415.536 1059.84 416.582 1059.84 417.871Z" fill="black"/>
<path d="M177.844 456.755C177.844 458.044 176.799 459.089 175.51 459.089C174.221 459.089 173.175 458.044 173.175 456.755C173.175 455.466 174.221 454.421 175.51 454.421C176.799 454.421 177.844 455.466 177.844 456.755Z" fill="black"/>
<path d="M1059.84 461.755C1059.84 463.044 1058.8 464.089 1057.51 464.089C1056.22 464.089 1055.18 463.044 1055.18 461.755C1055.18 460.466 1056.22 459.421 1057.51 459.421C1058.8 459.421 1059.84 460.466 1059.84 461.755Z" fill="black"/>
<path d="M177.844 500.639C177.844 501.928 176.799 502.973 175.51 502.973C174.221 502.973 173.175 501.928 173.175 500.639C173.175 499.35 174.221 498.305 175.51 498.305C176.799 498.305 177.844 499.35 177.844 500.639Z" fill="black"/>
<path d="M1059.84 505.639C1059.84 506.928 1058.8 507.973 1057.51 507.973C1056.22 507.973 1055.18 506.928 1055.18 505.639C1055.18 504.35 1056.22 503.305 1057.51 503.305C1058.8 503.305 1059.84 504.35 1059.84 505.639Z" fill="black"/>
<path d="M177.844 544.523C177.844 545.812 176.799 546.857 175.51 546.857C174.221 546.857 173.175 545.812 173.175 544.523C173.175 543.234 174.221 542.189 175.51 542.189C176.799 542.189 177.844 543.234 177.844 544.523Z" fill="black"/>
<path d="M1059.84 549.523C1059.84 550.812 1058.8 551.857 1057.51 551.857C1056.22 551.857 1055.18 550.812 1055.18 549.523C1055.18 548.234 1056.22 547.189 1057.51 547.189C1058.8 547.189 1059.84 548.234 1059.84 549.523Z" fill="black"/>
<path d="M177.844 588.407C177.844 589.696 176.799 590.741 175.51 590.741C174.221 590.741 173.175 589.696 173.175 588.407C173.175 587.118 174.221 586.073 175.51 586.073C176.799 586.073 177.844 587.118 177.844 588.407Z" fill="black"/>
<path d="M1059.84 593.407C1059.84 594.696 1058.8 595.741 1057.51 595.741C1056.22 595.741 1055.18 594.696 1055.18 593.407C1055.18 592.118 1056.22 591.073 1057.51 591.073C1058.8 591.073 1059.84 592.118 1059.84 593.407Z" fill="black"/>
<path d="M177.844 632.291C177.844 633.581 176.799 634.626 175.51 634.626C174.221 634.626 173.175 633.581 173.175 632.291C173.175 631.002 174.221 629.957 175.51 629.957C176.799 629.957 177.844 631.002 177.844 632.291Z" fill="black"/>
<path d="M1059.84 637.291C1059.84 638.581 1058.8 639.626 1057.51 639.626C1056.22 639.626 1055.18 638.581 1055.18 637.291C1055.18 636.002 1056.22 634.957 1057.51 634.957C1058.8 634.957 1059.84 636.002 1059.84 637.291Z" fill="black"/>
<path d="M177.844 676.175C177.844 677.465 176.799 678.51 175.51 678.51C174.221 678.51 173.175 677.465 173.175 676.175C173.175 674.886 174.221 673.841 175.51 673.841C176.799 673.841 177.844 674.886 177.844 676.175Z" fill="black"/>
<path d="M1059.84 681.175C1059.84 682.465 1058.8 683.51 1057.51 683.51C1056.22 683.51 1055.18 682.465 1055.18 681.175C1055.18 679.886 1056.22 678.841 1057.51 678.841C1058.8 678.841 1059.84 679.886 1059.84 681.175Z" fill="black"/>
<path d="M226.863 237.334C226.863 238.623 225.818 239.669 224.529 239.669C223.24 239.669 222.195 238.623 222.195 237.334C222.195 236.045 223.24 235 224.529 235C225.818 235 226.863 236.045 226.863 237.334Z" fill="black"/>
<path d="M1108.86 242.334C1108.86 243.623 1107.82 244.669 1106.53 244.669C1105.24 244.669 1104.19 243.623 1104.19 242.334C1104.19 241.045 1105.24 240 1106.53 240C1107.82 240 1108.86 241.045 1108.86 242.334Z" fill="black"/>
<path d="M226.863 281.218C226.863 282.508 225.818 283.553 224.529 283.553C223.24 283.553 222.195 282.508 222.195 281.218C222.195 279.929 223.24 278.884 224.529 278.884C225.818 278.884 226.863 279.929 226.863 281.218Z" fill="black"/>
<path d="M1108.86 286.218C1108.86 287.508 1107.82 288.553 1106.53 288.553C1105.24 288.553 1104.19 287.508 1104.19 286.218C1104.19 284.929 1105.24 283.884 1106.53 283.884C1107.82 283.884 1108.86 284.929 1108.86 286.218Z" fill="black"/>
<path d="M226.863 325.103C226.863 326.392 225.818 327.437 224.529 327.437C223.24 327.437 222.195 326.392 222.195 325.103C222.195 323.813 223.24 322.768 224.529 322.768C225.818 322.768 226.863 323.813 226.863 325.103Z" fill="black"/>
<path d="M1108.86 330.103C1108.86 331.392 1107.82 332.437 1106.53 332.437C1105.24 332.437 1104.19 331.392 1104.19 330.103C1104.19 328.813 1105.24 327.768 1106.53 327.768C1107.82 327.768 1108.86 328.813 1108.86 330.103Z" fill="black"/>
<path d="M226.863 368.987C226.863 370.276 225.818 371.321 224.529 371.321C223.24 371.321 222.195 370.276 222.195 368.987C222.195 367.697 223.24 366.652 224.529 366.652C225.818 366.652 226.863 367.697 226.863 368.987Z" fill="black"/>
<path d="M1108.86 373.987C1108.86 375.276 1107.82 376.321 1106.53 376.321C1105.24 376.321 1104.19 375.276 1104.19 373.987C1104.19 372.697 1105.24 371.652 1106.53 371.652C1107.82 371.652 1108.86 372.697 1108.86 373.987Z" fill="black"/>
<path d="M226.863 412.871C226.863 414.16 225.818 415.205 224.529 415.205C223.24 415.205 222.195 414.16 222.195 412.871C222.195 411.582 223.24 410.536 224.529 410.536C225.818 410.536 226.863 411.582 226.863 412.871Z" fill="black"/>
<path d="M1108.86 417.871C1108.86 419.16 1107.82 420.205 1106.53 420.205C1105.24 420.205 1104.19 419.16 1104.19 417.871C1104.19 416.582 1105.24 415.536 1106.53 415.536C1107.82 415.536 1108.86 416.582 1108.86 417.871Z" fill="black"/>
<path d="M226.863 456.755C226.863 458.044 225.818 459.089 224.529 459.089C223.24 459.089 222.195 458.044 222.195 456.755C222.195 455.466 223.24 454.421 224.529 454.421C225.818 454.421 226.863 455.466 226.863 456.755Z" fill="black"/>
<path d="M1108.86 461.755C1108.86 463.044 1107.82 464.089 1106.53 464.089C1105.24 464.089 1104.19 463.044 1104.19 461.755C1104.19 460.466 1105.24 459.421 1106.53 459.421C1107.82 459.421 1108.86 460.466 1108.86 461.755Z" fill="black"/>
<path d="M226.863 500.639C226.863 501.928 225.818 502.973 224.529 502.973C223.24 502.973 222.195 501.928 222.195 500.639C222.195 499.35 223.24 498.305 224.529 498.305C225.818 498.305 226.863 499.35 226.863 500.639Z" fill="black"/>
<path d="M1108.86 505.639C1108.86 506.928 1107.82 507.973 1106.53 507.973C1105.24 507.973 1104.19 506.928 1104.19 505.639C1104.19 504.35 1105.24 503.305 1106.53 503.305C1107.82 503.305 1108.86 504.35 1108.86 505.639Z" fill="black"/>
<path d="M226.863 544.523C226.863 545.812 225.818 546.857 224.529 546.857C223.24 546.857 222.195 545.812 222.195 544.523C222.195 543.234 223.24 542.189 224.529 542.189C225.818 542.189 226.863 543.234 226.863 544.523Z" fill="black"/>
<path d="M1108.86 549.523C1108.86 550.812 1107.82 551.857 1106.53 551.857C1105.24 551.857 1104.19 550.812 1104.19 549.523C1104.19 548.234 1105.24 547.189 1106.53 547.189C1107.82 547.189 1108.86 548.234 1108.86 549.523Z" fill="black"/>
<path d="M226.863 588.407C226.863 589.696 225.818 590.741 224.529 590.741C223.24 590.741 222.195 589.696 222.195 588.407C222.195 587.118 223.24 586.073 224.529 586.073C225.818 586.073 226.863 587.118 226.863 588.407Z" fill="black"/>
<path d="M1108.86 593.407C1108.86 594.696 1107.82 595.741 1106.53 595.741C1105.24 595.741 1104.19 594.696 1104.19 593.407C1104.19 592.118 1105.24 591.073 1106.53 591.073C1107.82 591.073 1108.86 592.118 1108.86 593.407Z" fill="black"/>
<path d="M226.863 632.291C226.863 633.581 225.818 634.626 224.529 634.626C223.24 634.626 222.195 633.581 222.195 632.291C222.195 631.002 223.24 629.957 224.529 629.957C225.818 629.957 226.863 631.002 226.863 632.291Z" fill="black"/>
<path d="M1108.86 637.291C1108.86 638.581 1107.82 639.626 1106.53 639.626C1105.24 639.626 1104.19 638.581 1104.19 637.291C1104.19 636.002 1105.24 634.957 1106.53 634.957C1107.82 634.957 1108.86 636.002 1108.86 637.291Z" fill="black"/>
<path d="M226.863 676.175C226.863 677.465 225.818 678.51 224.529 678.51C223.24 678.51 222.195 677.465 222.195 676.175C222.195 674.886 223.24 673.841 224.529 673.841C225.818 673.841 226.863 674.886 226.863 676.175Z" fill="black"/>
<path d="M1108.86 681.175C1108.86 682.465 1107.82 683.51 1106.53 683.51C1105.24 683.51 1104.19 682.465 1104.19 681.175C1104.19 679.886 1105.24 678.841 1106.53 678.841C1107.82 678.841 1108.86 679.886 1108.86 681.175Z" fill="black"/>
<path d="M275.883 237.334C275.883 238.623 274.838 239.669 273.549 239.669C272.26 239.669 271.214 238.623 271.214 237.334C271.214 236.045 272.26 235 273.549 235C274.838 235 275.883 236.045 275.883 237.334Z" fill="black"/>
<path d="M1157.88 242.334C1157.88 243.623 1156.84 244.669 1155.55 244.669C1154.26 244.669 1153.21 243.623 1153.21 242.334C1153.21 241.045 1154.26 240 1155.55 240C1156.84 240 1157.88 241.045 1157.88 242.334Z" fill="black"/>
<path d="M275.883 281.218C275.883 282.508 274.838 283.553 273.549 283.553C272.26 283.553 271.214 282.508 271.214 281.218C271.214 279.929 272.26 278.884 273.549 278.884C274.838 278.884 275.883 279.929 275.883 281.218Z" fill="black"/>
<path d="M1157.88 286.218C1157.88 287.508 1156.84 288.553 1155.55 288.553C1154.26 288.553 1153.21 287.508 1153.21 286.218C1153.21 284.929 1154.26 283.884 1155.55 283.884C1156.84 283.884 1157.88 284.929 1157.88 286.218Z" fill="black"/>
<path d="M275.883 325.103C275.883 326.392 274.838 327.437 273.549 327.437C272.26 327.437 271.214 326.392 271.214 325.103C271.214 323.813 272.26 322.768 273.549 322.768C274.838 322.768 275.883 323.813 275.883 325.103Z" fill="black"/>
<path d="M1157.88 330.103C1157.88 331.392 1156.84 332.437 1155.55 332.437C1154.26 332.437 1153.21 331.392 1153.21 330.103C1153.21 328.813 1154.26 327.768 1155.55 327.768C1156.84 327.768 1157.88 328.813 1157.88 330.103Z" fill="black"/>
<path d="M275.883 368.987C275.883 370.276 274.838 371.321 273.549 371.321C272.26 371.321 271.214 370.276 271.214 368.987C271.214 367.697 272.26 366.652 273.549 366.652C274.838 366.652 275.883 367.697 275.883 368.987Z" fill="black"/>
<path d="M1157.88 373.987C1157.88 375.276 1156.84 376.321 1155.55 376.321C1154.26 376.321 1153.21 375.276 1153.21 373.987C1153.21 372.697 1154.26 371.652 1155.55 371.652C1156.84 371.652 1157.88 372.697 1157.88 373.987Z" fill="black"/>
<path d="M275.883 412.871C275.883 414.16 274.838 415.205 273.549 415.205C272.26 415.205 271.214 414.16 271.214 412.871C271.214 411.582 272.26 410.536 273.549 410.536C274.838 410.536 275.883 411.582 275.883 412.871Z" fill="black"/>
<path d="M1157.88 417.871C1157.88 419.16 1156.84 420.205 1155.55 420.205C1154.26 420.205 1153.21 419.16 1153.21 417.871C1153.21 416.582 1154.26 415.536 1155.55 415.536C1156.84 415.536 1157.88 416.582 1157.88 417.871Z" fill="black"/>
<path d="M275.883 456.755C275.883 458.044 274.838 459.089 273.549 459.089C272.26 459.089 271.214 458.044 271.214 456.755C271.214 455.466 272.26 454.421 273.549 454.421C274.838 454.421 275.883 455.466 275.883 456.755Z" fill="black"/>
<path d="M1157.88 461.755C1157.88 463.044 1156.84 464.089 1155.55 464.089C1154.26 464.089 1153.21 463.044 1153.21 461.755C1153.21 460.466 1154.26 459.421 1155.55 459.421C1156.84 459.421 1157.88 460.466 1157.88 461.755Z" fill="black"/>
<path d="M275.883 500.639C275.883 501.928 274.838 502.973 273.549 502.973C272.26 502.973 271.214 501.928 271.214 500.639C271.214 499.35 272.26 498.305 273.549 498.305C274.838 498.305 275.883 499.35 275.883 500.639Z" fill="black"/>
<path d="M1157.88 505.639C1157.88 506.928 1156.84 507.973 1155.55 507.973C1154.26 507.973 1153.21 506.928 1153.21 505.639C1153.21 504.35 1154.26 503.305 1155.55 503.305C1156.84 503.305 1157.88 504.35 1157.88 505.639Z" fill="black"/>
<path d="M275.883 544.523C275.883 545.812 274.838 546.857 273.549 546.857C272.26 546.857 271.214 545.812 271.214 544.523C271.214 543.234 272.26 542.189 273.549 542.189C274.838 542.189 275.883 543.234 275.883 544.523Z" fill="black"/>
<path d="M1157.88 549.523C1157.88 550.812 1156.84 551.857 1155.55 551.857C1154.26 551.857 1153.21 550.812 1153.21 549.523C1153.21 548.234 1154.26 547.189 1155.55 547.189C1156.84 547.189 1157.88 548.234 1157.88 549.523Z" fill="black"/>
<path d="M275.883 588.407C275.883 589.696 274.838 590.741 273.549 590.741C272.26 590.741 271.214 589.696 271.214 588.407C271.214 587.118 272.26 586.073 273.549 586.073C274.838 586.073 275.883 587.118 275.883 588.407Z" fill="black"/>
<path d="M1157.88 593.407C1157.88 594.696 1156.84 595.741 1155.55 595.741C1154.26 595.741 1153.21 594.696 1153.21 593.407C1153.21 592.118 1154.26 591.073 1155.55 591.073C1156.84 591.073 1157.88 592.118 1157.88 593.407Z" fill="black"/>
<path d="M275.883 632.291C275.883 633.581 274.838 634.626 273.549 634.626C272.26 634.626 271.214 633.581 271.214 632.291C271.214 631.002 272.26 629.957 273.549 629.957C274.838 629.957 275.883 631.002 275.883 632.291Z" fill="black"/>
<path d="M1157.88 637.291C1157.88 638.581 1156.84 639.626 1155.55 639.626C1154.26 639.626 1153.21 638.581 1153.21 637.291C1153.21 636.002 1154.26 634.957 1155.55 634.957C1156.84 634.957 1157.88 636.002 1157.88 637.291Z" fill="black"/>
<path d="M275.883 676.175C275.883 677.465 274.838 678.51 273.549 678.51C272.26 678.51 271.214 677.465 271.214 676.175C271.214 674.886 272.26 673.841 273.549 673.841C274.838 673.841 275.883 674.886 275.883 676.175Z" fill="black"/>
<path d="M1157.88 681.175C1157.88 682.465 1156.84 683.51 1155.55 683.51C1154.26 683.51 1153.21 682.465 1153.21 681.175C1153.21 679.886 1154.26 678.841 1155.55 678.841C1156.84 678.841 1157.88 679.886 1157.88 681.175Z" fill="black"/>
<path d="M324.903 237.334C324.903 238.623 323.857 239.669 322.568 239.669C321.279 239.669 320.234 238.623 320.234 237.334C320.234 236.045 321.279 235 322.568 235C323.857 235 324.903 236.045 324.903 237.334Z" fill="black"/>
<path d="M1206.9 242.334C1206.9 243.623 1205.86 244.669 1204.57 244.669C1203.28 244.669 1202.23 243.623 1202.23 242.334C1202.23 241.045 1203.28 240 1204.57 240C1205.86 240 1206.9 241.045 1206.9 242.334Z" fill="black"/>
<path d="M324.903 281.218C324.903 282.508 323.857 283.553 322.568 283.553C321.279 283.553 320.234 282.508 320.234 281.218C320.234 279.929 321.279 278.884 322.568 278.884C323.857 278.884 324.903 279.929 324.903 281.218Z" fill="black"/>
<path d="M1206.9 286.218C1206.9 287.508 1205.86 288.553 1204.57 288.553C1203.28 288.553 1202.23 287.508 1202.23 286.218C1202.23 284.929 1203.28 283.884 1204.57 283.884C1205.86 283.884 1206.9 284.929 1206.9 286.218Z" fill="black"/>
<path d="M324.903 325.103C324.903 326.392 323.857 327.437 322.568 327.437C321.279 327.437 320.234 326.392 320.234 325.103C320.234 323.813 321.279 322.768 322.568 322.768C323.857 322.768 324.903 323.813 324.903 325.103Z" fill="black"/>
<path d="M1206.9 330.103C1206.9 331.392 1205.86 332.437 1204.57 332.437C1203.28 332.437 1202.23 331.392 1202.23 330.103C1202.23 328.813 1203.28 327.768 1204.57 327.768C1205.86 327.768 1206.9 328.813 1206.9 330.103Z" fill="black"/>
<path d="M324.903 368.987C324.903 370.276 323.857 371.321 322.568 371.321C321.279 371.321 320.234 370.276 320.234 368.987C320.234 367.697 321.279 366.652 322.568 366.652C323.857 366.652 324.903 367.697 324.903 368.987Z" fill="black"/>
<path d="M1206.9 373.987C1206.9 375.276 1205.86 376.321 1204.57 376.321C1203.28 376.321 1202.23 375.276 1202.23 373.987C1202.23 372.697 1203.28 371.652 1204.57 371.652C1205.86 371.652 1206.9 372.697 1206.9 373.987Z" fill="black"/>
<path d="M324.903 412.871C324.903 414.16 323.857 415.205 322.568 415.205C321.279 415.205 320.234 414.16 320.234 412.871C320.234 411.582 321.279 410.536 322.568 410.536C323.857 410.536 324.903 411.582 324.903 412.871Z" fill="black"/>
<path d="M1206.9 417.871C1206.9 419.16 1205.86 420.205 1204.57 420.205C1203.28 420.205 1202.23 419.16 1202.23 417.871C1202.23 416.582 1203.28 415.536 1204.57 415.536C1205.86 415.536 1206.9 416.582 1206.9 417.871Z" fill="black"/>
<path d="M324.903 456.755C324.903 458.044 323.857 459.089 322.568 459.089C321.279 459.089 320.234 458.044 320.234 456.755C320.234 455.466 321.279 454.421 322.568 454.421C323.857 454.421 324.903 455.466 324.903 456.755Z" fill="black"/>
<path d="M1206.9 461.755C1206.9 463.044 1205.86 464.089 1204.57 464.089C1203.28 464.089 1202.23 463.044 1202.23 461.755C1202.23 460.466 1203.28 459.421 1204.57 459.421C1205.86 459.421 1206.9 460.466 1206.9 461.755Z" fill="black"/>
<path d="M324.903 500.639C324.903 501.928 323.857 502.973 322.568 502.973C321.279 502.973 320.234 501.928 320.234 500.639C320.234 499.35 321.279 498.305 322.568 498.305C323.857 498.305 324.903 499.35 324.903 500.639Z" fill="black"/>
<path d="M1206.9 505.639C1206.9 506.928 1205.86 507.973 1204.57 507.973C1203.28 507.973 1202.23 506.928 1202.23 505.639C1202.23 504.35 1203.28 503.305 1204.57 503.305C1205.86 503.305 1206.9 504.35 1206.9 505.639Z" fill="black"/>
<path d="M324.903 544.523C324.903 545.812 323.857 546.857 322.568 546.857C321.279 546.857 320.234 545.812 320.234 544.523C320.234 543.234 321.279 542.189 322.568 542.189C323.857 542.189 324.903 543.234 324.903 544.523Z" fill="black"/>
<path d="M1206.9 549.523C1206.9 550.812 1205.86 551.857 1204.57 551.857C1203.28 551.857 1202.23 550.812 1202.23 549.523C1202.23 548.234 1203.28 547.189 1204.57 547.189C1205.86 547.189 1206.9 548.234 1206.9 549.523Z" fill="black"/>
<path d="M324.903 588.407C324.903 589.696 323.857 590.741 322.568 590.741C321.279 590.741 320.234 589.696 320.234 588.407C320.234 587.118 321.279 586.073 322.568 586.073C323.857 586.073 324.903 587.118 324.903 588.407Z" fill="black"/>
<path d="M1206.9 593.407C1206.9 594.696 1205.86 595.741 1204.57 595.741C1203.28 595.741 1202.23 594.696 1202.23 593.407C1202.23 592.118 1203.28 591.073 1204.57 591.073C1205.86 591.073 1206.9 592.118 1206.9 593.407Z" fill="black"/>
<path d="M324.903 632.291C324.903 633.581 323.857 634.626 322.568 634.626C321.279 634.626 320.234 633.581 320.234 632.291C320.234 631.002 321.279 629.957 322.568 629.957C323.857 629.957 324.903 631.002 324.903 632.291Z" fill="black"/>
<path d="M1206.9 637.291C1206.9 638.581 1205.86 639.626 1204.57 639.626C1203.28 639.626 1202.23 638.581 1202.23 637.291C1202.23 636.002 1203.28 634.957 1204.57 634.957C1205.86 634.957 1206.9 636.002 1206.9 637.291Z" fill="black"/>
<path d="M324.903 676.175C324.903 677.465 323.857 678.51 322.568 678.51C321.279 678.51 320.234 677.465 320.234 676.175C320.234 674.886 321.279 673.841 322.568 673.841C323.857 673.841 324.903 674.886 324.903 676.175Z" fill="black"/>
<path d="M1206.9 681.175C1206.9 682.465 1205.86 683.51 1204.57 683.51C1203.28 683.51 1202.23 682.465 1202.23 681.175C1202.23 679.886 1203.28 678.841 1204.57 678.841C1205.86 678.841 1206.9 679.886 1206.9 681.175Z" fill="black"/>
<path d="M373.922 237.334C373.922 238.623 372.877 239.669 371.588 239.669C370.299 239.669 369.253 238.623 369.253 237.334C369.253 236.045 370.299 235 371.588 235C372.877 235 373.922 236.045 373.922 237.334Z" fill="black"/>
<path d="M1255.92 242.334C1255.92 243.623 1254.88 244.669 1253.59 244.669C1252.3 244.669 1251.25 243.623 1251.25 242.334C1251.25 241.045 1252.3 240 1253.59 240C1254.88 240 1255.92 241.045 1255.92 242.334Z" fill="black"/>
<path d="M373.922 281.218C373.922 282.508 372.877 283.553 371.588 283.553C370.299 283.553 369.253 282.508 369.253 281.218C369.253 279.929 370.299 278.884 371.588 278.884C372.877 278.884 373.922 279.929 373.922 281.218Z" fill="black"/>
<path d="M1255.92 286.218C1255.92 287.508 1254.88 288.553 1253.59 288.553C1252.3 288.553 1251.25 287.508 1251.25 286.218C1251.25 284.929 1252.3 283.884 1253.59 283.884C1254.88 283.884 1255.92 284.929 1255.92 286.218Z" fill="black"/>
<path d="M373.922 325.103C373.922 326.392 372.877 327.437 371.588 327.437C370.299 327.437 369.253 326.392 369.253 325.103C369.253 323.813 370.299 322.768 371.588 322.768C372.877 322.768 373.922 323.813 373.922 325.103Z" fill="black"/>
<path d="M1255.92 330.103C1255.92 331.392 1254.88 332.437 1253.59 332.437C1252.3 332.437 1251.25 331.392 1251.25 330.103C1251.25 328.813 1252.3 327.768 1253.59 327.768C1254.88 327.768 1255.92 328.813 1255.92 330.103Z" fill="black"/>
<path d="M373.922 368.987C373.922 370.276 372.877 371.321 371.588 371.321C370.299 371.321 369.253 370.276 369.253 368.987C369.253 367.697 370.299 366.652 371.588 366.652C372.877 366.652 373.922 367.697 373.922 368.987Z" fill="black"/>
<path d="M1255.92 373.987C1255.92 375.276 1254.88 376.321 1253.59 376.321C1252.3 376.321 1251.25 375.276 1251.25 373.987C1251.25 372.697 1252.3 371.652 1253.59 371.652C1254.88 371.652 1255.92 372.697 1255.92 373.987Z" fill="black"/>
<path d="M373.922 412.871C373.922 414.16 372.877 415.205 371.588 415.205C370.299 415.205 369.253 414.16 369.253 412.871C369.253 411.582 370.299 410.536 371.588 410.536C372.877 410.536 373.922 411.582 373.922 412.871Z" fill="black"/>
<path d="M1255.92 417.871C1255.92 419.16 1254.88 420.205 1253.59 420.205C1252.3 420.205 1251.25 419.16 1251.25 417.871C1251.25 416.582 1252.3 415.536 1253.59 415.536C1254.88 415.536 1255.92 416.582 1255.92 417.871Z" fill="black"/>
<path d="M373.922 456.755C373.922 458.044 372.877 459.089 371.588 459.089C370.299 459.089 369.253 458.044 369.253 456.755C369.253 455.466 370.299 454.421 371.588 454.421C372.877 454.421 373.922 455.466 373.922 456.755Z" fill="black"/>
<path d="M1255.92 461.755C1255.92 463.044 1254.88 464.089 1253.59 464.089C1252.3 464.089 1251.25 463.044 1251.25 461.755C1251.25 460.466 1252.3 459.421 1253.59 459.421C1254.88 459.421 1255.92 460.466 1255.92 461.755Z" fill="black"/>
<path d="M373.922 500.639C373.922 501.928 372.877 502.973 371.588 502.973C370.299 502.973 369.253 501.928 369.253 500.639C369.253 499.35 370.299 498.305 371.588 498.305C372.877 498.305 373.922 499.35 373.922 500.639Z" fill="black"/>
<path d="M1255.92 505.639C1255.92 506.928 1254.88 507.973 1253.59 507.973C1252.3 507.973 1251.25 506.928 1251.25 505.639C1251.25 504.35 1252.3 503.305 1253.59 503.305C1254.88 503.305 1255.92 504.35 1255.92 505.639Z" fill="black"/>
<path d="M373.922 544.523C373.922 545.812 372.877 546.857 371.588 546.857C370.299 546.857 369.253 545.812 369.253 544.523C369.253 543.234 370.299 542.189 371.588 542.189C372.877 542.189 373.922 543.234 373.922 544.523Z" fill="black"/>
<path d="M1255.92 549.523C1255.92 550.812 1254.88 551.857 1253.59 551.857C1252.3 551.857 1251.25 550.812 1251.25 549.523C1251.25 548.234 1252.3 547.189 1253.59 547.189C1254.88 547.189 1255.92 548.234 1255.92 549.523Z" fill="black"/>
<path d="M373.922 588.407C373.922 589.696 372.877 590.741 371.588 590.741C370.299 590.741 369.253 589.696 369.253 588.407C369.253 587.118 370.299 586.073 371.588 586.073C372.877 586.073 373.922 587.118 373.922 588.407Z" fill="black"/>
<path d="M1255.92 593.407C1255.92 594.696 1254.88 595.741 1253.59 595.741C1252.3 595.741 1251.25 594.696 1251.25 593.407C1251.25 592.118 1252.3 591.073 1253.59 591.073C1254.88 591.073 1255.92 592.118 1255.92 593.407Z" fill="black"/>
<path d="M373.922 632.291C373.922 633.581 372.877 634.626 371.588 634.626C370.299 634.626 369.253 633.581 369.253 632.291C369.253 631.002 370.299 629.957 371.588 629.957C372.877 629.957 373.922 631.002 373.922 632.291Z" fill="black"/>
<path d="M1255.92 637.291C1255.92 638.581 1254.88 639.626 1253.59 639.626C1252.3 639.626 1251.25 638.581 1251.25 637.291C1251.25 636.002 1252.3 634.957 1253.59 634.957C1254.88 634.957 1255.92 636.002 1255.92 637.291Z" fill="black"/>
<path d="M373.922 676.175C373.922 677.465 372.877 678.51 371.588 678.51C370.299 678.51 369.253 677.465 369.253 676.175C369.253 674.886 370.299 673.841 371.588 673.841C372.877 673.841 373.922 674.886 373.922 676.175Z" fill="black"/>
<path d="M1255.92 681.175C1255.92 682.465 1254.88 683.51 1253.59 683.51C1252.3 683.51 1251.25 682.465 1251.25 681.175C1251.25 679.886 1252.3 678.841 1253.59 678.841C1254.88 678.841 1255.92 679.886 1255.92 681.175Z" fill="black"/>
<path d="M422.942 237.334C422.942 238.623 421.896 239.669 420.607 239.669C419.318 239.669 418.273 238.623 418.273 237.334C418.273 236.045 419.318 235 420.607 235C421.896 235 422.942 236.045 422.942 237.334Z" fill="black"/>
<path d="M1304.94 242.334C1304.94 243.623 1303.9 244.669 1302.61 244.669C1301.32 244.669 1300.27 243.623 1300.27 242.334C1300.27 241.045 1301.32 240 1302.61 240C1303.9 240 1304.94 241.045 1304.94 242.334Z" fill="black"/>
<path d="M422.942 281.218C422.942 282.508 421.896 283.553 420.607 283.553C419.318 283.553 418.273 282.508 418.273 281.218C418.273 279.929 419.318 278.884 420.607 278.884C421.896 278.884 422.942 279.929 422.942 281.218Z" fill="black"/>
<path d="M1304.94 286.218C1304.94 287.508 1303.9 288.553 1302.61 288.553C1301.32 288.553 1300.27 287.508 1300.27 286.218C1300.27 284.929 1301.32 283.884 1302.61 283.884C1303.9 283.884 1304.94 284.929 1304.94 286.218Z" fill="black"/>
<path d="M422.942 325.103C422.942 326.392 421.896 327.437 420.607 327.437C419.318 327.437 418.273 326.392 418.273 325.103C418.273 323.813 419.318 322.768 420.607 322.768C421.896 322.768 422.942 323.813 422.942 325.103Z" fill="black"/>
<path d="M1304.94 330.103C1304.94 331.392 1303.9 332.437 1302.61 332.437C1301.32 332.437 1300.27 331.392 1300.27 330.103C1300.27 328.813 1301.32 327.768 1302.61 327.768C1303.9 327.768 1304.94 328.813 1304.94 330.103Z" fill="black"/>
<path d="M422.942 368.987C422.942 370.276 421.896 371.321 420.607 371.321C419.318 371.321 418.273 370.276 418.273 368.987C418.273 367.697 419.318 366.652 420.607 366.652C421.896 366.652 422.942 367.697 422.942 368.987Z" fill="black"/>
<path d="M1304.94 373.987C1304.94 375.276 1303.9 376.321 1302.61 376.321C1301.32 376.321 1300.27 375.276 1300.27 373.987C1300.27 372.697 1301.32 371.652 1302.61 371.652C1303.9 371.652 1304.94 372.697 1304.94 373.987Z" fill="black"/>
<path d="M422.942 412.871C422.942 414.16 421.896 415.205 420.607 415.205C419.318 415.205 418.273 414.16 418.273 412.871C418.273 411.582 419.318 410.536 420.607 410.536C421.896 410.536 422.942 411.582 422.942 412.871Z" fill="black"/>
<path d="M1304.94 417.871C1304.94 419.16 1303.9 420.205 1302.61 420.205C1301.32 420.205 1300.27 419.16 1300.27 417.871C1300.27 416.582 1301.32 415.536 1302.61 415.536C1303.9 415.536 1304.94 416.582 1304.94 417.871Z" fill="black"/>
<path d="M422.942 456.755C422.942 458.044 421.896 459.089 420.607 459.089C419.318 459.089 418.273 458.044 418.273 456.755C418.273 455.466 419.318 454.421 420.607 454.421C421.896 454.421 422.942 455.466 422.942 456.755Z" fill="black"/>
<path d="M1304.94 461.755C1304.94 463.044 1303.9 464.089 1302.61 464.089C1301.32 464.089 1300.27 463.044 1300.27 461.755C1300.27 460.466 1301.32 459.421 1302.61 459.421C1303.9 459.421 1304.94 460.466 1304.94 461.755Z" fill="black"/>
<path d="M422.942 500.639C422.942 501.928 421.896 502.973 420.607 502.973C419.318 502.973 418.273 501.928 418.273 500.639C418.273 499.35 419.318 498.305 420.607 498.305C421.896 498.305 422.942 499.35 422.942 500.639Z" fill="black"/>
<path d="M1304.94 505.639C1304.94 506.928 1303.9 507.973 1302.61 507.973C1301.32 507.973 1300.27 506.928 1300.27 505.639C1300.27 504.35 1301.32 503.305 1302.61 503.305C1303.9 503.305 1304.94 504.35 1304.94 505.639Z" fill="black"/>
<path d="M422.942 544.523C422.942 545.812 421.896 546.857 420.607 546.857C419.318 546.857 418.273 545.812 418.273 544.523C418.273 543.234 419.318 542.189 420.607 542.189C421.896 542.189 422.942 543.234 422.942 544.523Z" fill="black"/>
<path d="M1304.94 549.523C1304.94 550.812 1303.9 551.857 1302.61 551.857C1301.32 551.857 1300.27 550.812 1300.27 549.523C1300.27 548.234 1301.32 547.189 1302.61 547.189C1303.9 547.189 1304.94 548.234 1304.94 549.523Z" fill="black"/>
<path d="M422.942 588.407C422.942 589.696 421.896 590.741 420.607 590.741C419.318 590.741 418.273 589.696 418.273 588.407C418.273 587.118 419.318 586.073 420.607 586.073C421.896 586.073 422.942 587.118 422.942 588.407Z" fill="black"/>
<path d="M1304.94 593.407C1304.94 594.696 1303.9 595.741 1302.61 595.741C1301.32 595.741 1300.27 594.696 1300.27 593.407C1300.27 592.118 1301.32 591.073 1302.61 591.073C1303.9 591.073 1304.94 592.118 1304.94 593.407Z" fill="black"/>
<path d="M422.942 632.291C422.942 633.581 421.896 634.626 420.607 634.626C419.318 634.626 418.273 633.581 418.273 632.291C418.273 631.002 419.318 629.957 420.607 629.957C421.896 629.957 422.942 631.002 422.942 632.291Z" fill="black"/>
<path d="M1304.94 637.291C1304.94 638.581 1303.9 639.626 1302.61 639.626C1301.32 639.626 1300.27 638.581 1300.27 637.291C1300.27 636.002 1301.32 634.957 1302.61 634.957C1303.9 634.957 1304.94 636.002 1304.94 637.291Z" fill="black"/>
<path d="M422.942 676.175C422.942 677.465 421.896 678.51 420.607 678.51C419.318 678.51 418.273 677.465 418.273 676.175C418.273 674.886 419.318 673.841 420.607 673.841C421.896 673.841 422.942 674.886 422.942 676.175Z" fill="black"/>
<path d="M1304.94 681.175C1304.94 682.465 1303.9 683.51 1302.61 683.51C1301.32 683.51 1300.27 682.465 1300.27 681.175C1300.27 679.886 1301.32 678.841 1302.61 678.841C1303.9 678.841 1304.94 679.886 1304.94 681.175Z" fill="black"/>
<path d="M471.961 237.334C471.961 238.623 470.916 239.669 469.627 239.669C468.338 239.669 467.292 238.623 467.292 237.334C467.292 236.045 468.338 235 469.627 235C470.916 235 471.961 236.045 471.961 237.334Z" fill="black"/>
<path d="M1353.96 242.334C1353.96 243.623 1352.92 244.669 1351.63 244.669C1350.34 244.669 1349.29 243.623 1349.29 242.334C1349.29 241.045 1350.34 240 1351.63 240C1352.92 240 1353.96 241.045 1353.96 242.334Z" fill="black"/>
<path d="M471.961 281.218C471.961 282.508 470.916 283.553 469.627 283.553C468.338 283.553 467.292 282.508 467.292 281.218C467.292 279.929 468.338 278.884 469.627 278.884C470.916 278.884 471.961 279.929 471.961 281.218Z" fill="black"/>
<path d="M1353.96 286.218C1353.96 287.508 1352.92 288.553 1351.63 288.553C1350.34 288.553 1349.29 287.508 1349.29 286.218C1349.29 284.929 1350.34 283.884 1351.63 283.884C1352.92 283.884 1353.96 284.929 1353.96 286.218Z" fill="black"/>
<path d="M471.961 325.103C471.961 326.392 470.916 327.437 469.627 327.437C468.338 327.437 467.292 326.392 467.292 325.103C467.292 323.813 468.338 322.768 469.627 322.768C470.916 322.768 471.961 323.813 471.961 325.103Z" fill="black"/>
<path d="M1353.96 330.103C1353.96 331.392 1352.92 332.437 1351.63 332.437C1350.34 332.437 1349.29 331.392 1349.29 330.103C1349.29 328.813 1350.34 327.768 1351.63 327.768C1352.92 327.768 1353.96 328.813 1353.96 330.103Z" fill="black"/>
<path d="M471.961 368.987C471.961 370.276 470.916 371.321 469.627 371.321C468.338 371.321 467.292 370.276 467.292 368.987C467.292 367.697 468.338 366.652 469.627 366.652C470.916 366.652 471.961 367.697 471.961 368.987Z" fill="black"/>
<path d="M1353.96 373.987C1353.96 375.276 1352.92 376.321 1351.63 376.321C1350.34 376.321 1349.29 375.276 1349.29 373.987C1349.29 372.697 1350.34 371.652 1351.63 371.652C1352.92 371.652 1353.96 372.697 1353.96 373.987Z" fill="black"/>
<path d="M471.961 412.871C471.961 414.16 470.916 415.205 469.627 415.205C468.338 415.205 467.292 414.16 467.292 412.871C467.292 411.582 468.338 410.536 469.627 410.536C470.916 410.536 471.961 411.582 471.961 412.871Z" fill="black"/>
<path d="M1353.96 417.871C1353.96 419.16 1352.92 420.205 1351.63 420.205C1350.34 420.205 1349.29 419.16 1349.29 417.871C1349.29 416.582 1350.34 415.536 1351.63 415.536C1352.92 415.536 1353.96 416.582 1353.96 417.871Z" fill="black"/>
<path d="M471.961 456.755C471.961 458.044 470.916 459.089 469.627 459.089C468.338 459.089 467.292 458.044 467.292 456.755C467.292 455.466 468.338 454.421 469.627 454.421C470.916 454.421 471.961 455.466 471.961 456.755Z" fill="black"/>
<path d="M1353.96 461.755C1353.96 463.044 1352.92 464.089 1351.63 464.089C1350.34 464.089 1349.29 463.044 1349.29 461.755C1349.29 460.466 1350.34 459.421 1351.63 459.421C1352.92 459.421 1353.96 460.466 1353.96 461.755Z" fill="black"/>
<path d="M471.961 500.639C471.961 501.928 470.916 502.973 469.627 502.973C468.338 502.973 467.292 501.928 467.292 500.639C467.292 499.35 468.338 498.305 469.627 498.305C470.916 498.305 471.961 499.35 471.961 500.639Z" fill="black"/>
<path d="M1353.96 505.639C1353.96 506.928 1352.92 507.973 1351.63 507.973C1350.34 507.973 1349.29 506.928 1349.29 505.639C1349.29 504.35 1350.34 503.305 1351.63 503.305C1352.92 503.305 1353.96 504.35 1353.96 505.639Z" fill="black"/>
<path d="M471.961 544.523C471.961 545.812 470.916 546.857 469.627 546.857C468.338 546.857 467.292 545.812 467.292 544.523C467.292 543.234 468.338 542.189 469.627 542.189C470.916 542.189 471.961 543.234 471.961 544.523Z" fill="black"/>
<path d="M1353.96 549.523C1353.96 550.812 1352.92 551.857 1351.63 551.857C1350.34 551.857 1349.29 550.812 1349.29 549.523C1349.29 548.234 1350.34 547.189 1351.63 547.189C1352.92 547.189 1353.96 548.234 1353.96 549.523Z" fill="black"/>
<path d="M471.961 588.407C471.961 589.696 470.916 590.741 469.627 590.741C468.338 590.741 467.292 589.696 467.292 588.407C467.292 587.118 468.338 586.073 469.627 586.073C470.916 586.073 471.961 587.118 471.961 588.407Z" fill="black"/>
<path d="M1353.96 593.407C1353.96 594.696 1352.92 595.741 1351.63 595.741C1350.34 595.741 1349.29 594.696 1349.29 593.407C1349.29 592.118 1350.34 591.073 1351.63 591.073C1352.92 591.073 1353.96 592.118 1353.96 593.407Z" fill="black"/>
<path d="M471.961 632.291C471.961 633.581 470.916 634.626 469.627 634.626C468.338 634.626 467.292 633.581 467.292 632.291C467.292 631.002 468.338 629.957 469.627 629.957C470.916 629.957 471.961 631.002 471.961 632.291Z" fill="black"/>
<path d="M1353.96 637.291C1353.96 638.581 1352.92 639.626 1351.63 639.626C1350.34 639.626 1349.29 638.581 1349.29 637.291C1349.29 636.002 1350.34 634.957 1351.63 634.957C1352.92 634.957 1353.96 636.002 1353.96 637.291Z" fill="black"/>
<path d="M471.961 676.175C471.961 677.465 470.916 678.51 469.627 678.51C468.338 678.51 467.292 677.465 467.292 676.175C467.292 674.886 468.338 673.841 469.627 673.841C470.916 673.841 471.961 674.886 471.961 676.175Z" fill="black"/>
<path d="M1353.96 681.175C1353.96 682.465 1352.92 683.51 1351.63 683.51C1350.34 683.51 1349.29 682.465 1349.29 681.175C1349.29 679.886 1350.34 678.841 1351.63 678.841C1352.92 678.841 1353.96 679.886 1353.96 681.175Z" fill="black"/>
<path d="M520.98 237.334C520.98 238.623 519.935 239.669 518.646 239.669C517.357 239.669 516.312 238.623 516.312 237.334C516.312 236.045 517.357 235 518.646 235C519.935 235 520.98 236.045 520.98 237.334Z" fill="black"/>
<path d="M1402.98 242.334C1402.98 243.623 1401.94 244.669 1400.65 244.669C1399.36 244.669 1398.31 243.623 1398.31 242.334C1398.31 241.045 1399.36 240 1400.65 240C1401.94 240 1402.98 241.045 1402.98 242.334Z" fill="black"/>
<path d="M520.98 281.218C520.98 282.508 519.935 283.553 518.646 283.553C517.357 283.553 516.312 282.508 516.312 281.218C516.312 279.929 517.357 278.884 518.646 278.884C519.935 278.884 520.98 279.929 520.98 281.218Z" fill="black"/>
<path d="M1402.98 286.218C1402.98 287.508 1401.94 288.553 1400.65 288.553C1399.36 288.553 1398.31 287.508 1398.31 286.218C1398.31 284.929 1399.36 283.884 1400.65 283.884C1401.94 283.884 1402.98 284.929 1402.98 286.218Z" fill="black"/>
<path d="M520.98 325.103C520.98 326.392 519.935 327.437 518.646 327.437C517.357 327.437 516.312 326.392 516.312 325.103C516.312 323.813 517.357 322.768 518.646 322.768C519.935 322.768 520.98 323.813 520.98 325.103Z" fill="black"/>
<path d="M1402.98 330.103C1402.98 331.392 1401.94 332.437 1400.65 332.437C1399.36 332.437 1398.31 331.392 1398.31 330.103C1398.31 328.813 1399.36 327.768 1400.65 327.768C1401.94 327.768 1402.98 328.813 1402.98 330.103Z" fill="black"/>
<path d="M520.98 368.987C520.98 370.276 519.935 371.321 518.646 371.321C517.357 371.321 516.312 370.276 516.312 368.987C516.312 367.697 517.357 366.652 518.646 366.652C519.935 366.652 520.98 367.697 520.98 368.987Z" fill="black"/>
<path d="M1402.98 373.987C1402.98 375.276 1401.94 376.321 1400.65 376.321C1399.36 376.321 1398.31 375.276 1398.31 373.987C1398.31 372.697 1399.36 371.652 1400.65 371.652C1401.94 371.652 1402.98 372.697 1402.98 373.987Z" fill="black"/>
<path d="M520.98 412.871C520.98 414.16 519.935 415.205 518.646 415.205C517.357 415.205 516.312 414.16 516.312 412.871C516.312 411.582 517.357 410.536 518.646 410.536C519.935 410.536 520.98 411.582 520.98 412.871Z" fill="black"/>
<path d="M1402.98 417.871C1402.98 419.16 1401.94 420.205 1400.65 420.205C1399.36 420.205 1398.31 419.16 1398.31 417.871C1398.31 416.582 1399.36 415.536 1400.65 415.536C1401.94 415.536 1402.98 416.582 1402.98 417.871Z" fill="black"/>
<path d="M520.98 456.755C520.98 458.044 519.935 459.089 518.646 459.089C517.357 459.089 516.312 458.044 516.312 456.755C516.312 455.466 517.357 454.421 518.646 454.421C519.935 454.421 520.98 455.466 520.98 456.755Z" fill="black"/>
<path d="M1402.98 461.755C1402.98 463.044 1401.94 464.089 1400.65 464.089C1399.36 464.089 1398.31 463.044 1398.31 461.755C1398.31 460.466 1399.36 459.421 1400.65 459.421C1401.94 459.421 1402.98 460.466 1402.98 461.755Z" fill="black"/>
<path d="M520.98 500.639C520.98 501.928 519.935 502.973 518.646 502.973C517.357 502.973 516.312 501.928 516.312 500.639C516.312 499.35 517.357 498.305 518.646 498.305C519.935 498.305 520.98 499.35 520.98 500.639Z" fill="black"/>
<path d="M1402.98 505.639C1402.98 506.928 1401.94 507.973 1400.65 507.973C1399.36 507.973 1398.31 506.928 1398.31 505.639C1398.31 504.35 1399.36 503.305 1400.65 503.305C1401.94 503.305 1402.98 504.35 1402.98 505.639Z" fill="black"/>
<path d="M520.98 544.523C520.98 545.812 519.935 546.857 518.646 546.857C517.357 546.857 516.312 545.812 516.312 544.523C516.312 543.234 517.357 542.189 518.646 542.189C519.935 542.189 520.98 543.234 520.98 544.523Z" fill="black"/>
<path d="M1402.98 549.523C1402.98 550.812 1401.94 551.857 1400.65 551.857C1399.36 551.857 1398.31 550.812 1398.31 549.523C1398.31 548.234 1399.36 547.189 1400.65 547.189C1401.94 547.189 1402.98 548.234 1402.98 549.523Z" fill="black"/>
<path d="M520.98 588.407C520.98 589.696 519.935 590.741 518.646 590.741C517.357 590.741 516.312 589.696 516.312 588.407C516.312 587.118 517.357 586.073 518.646 586.073C519.935 586.073 520.98 587.118 520.98 588.407Z" fill="black"/>
<path d="M1402.98 593.407C1402.98 594.696 1401.94 595.741 1400.65 595.741C1399.36 595.741 1398.31 594.696 1398.31 593.407C1398.31 592.118 1399.36 591.073 1400.65 591.073C1401.94 591.073 1402.98 592.118 1402.98 593.407Z" fill="black"/>
<path d="M520.98 632.291C520.98 633.581 519.935 634.626 518.646 634.626C517.357 634.626 516.312 633.581 516.312 632.291C516.312 631.002 517.357 629.957 518.646 629.957C519.935 629.957 520.98 631.002 520.98 632.291Z" fill="black"/>
<path d="M1402.98 637.291C1402.98 638.581 1401.94 639.626 1400.65 639.626C1399.36 639.626 1398.31 638.581 1398.31 637.291C1398.31 636.002 1399.36 634.957 1400.65 634.957C1401.94 634.957 1402.98 636.002 1402.98 637.291Z" fill="black"/>
<path d="M520.98 676.175C520.98 677.465 519.935 678.51 518.646 678.51C517.357 678.51 516.312 677.465 516.312 676.175C516.312 674.886 517.357 673.841 518.646 673.841C519.935 673.841 520.98 674.886 520.98 676.175Z" fill="black"/>
<path d="M1402.98 681.175C1402.98 682.465 1401.94 683.51 1400.65 683.51C1399.36 683.51 1398.31 682.465 1398.31 681.175C1398.31 679.886 1399.36 678.841 1400.65 678.841C1401.94 678.841 1402.98 679.886 1402.98 681.175Z" fill="black"/>
<path d="M570 237.334C570 238.623 568.955 239.669 567.666 239.669C566.377 239.669 565.331 238.623 565.331 237.334C565.331 236.045 566.377 235 567.666 235C568.955 235 570 236.045 570 237.334Z" fill="black"/>
<path d="M1452 242.334C1452 243.623 1450.95 244.669 1449.67 244.669C1448.38 244.669 1447.33 243.623 1447.33 242.334C1447.33 241.045 1448.38 240 1449.67 240C1450.95 240 1452 241.045 1452 242.334Z" fill="black"/>
<path d="M570 281.218C570 282.508 568.955 283.553 567.666 283.553C566.377 283.553 565.331 282.508 565.331 281.218C565.331 279.929 566.377 278.884 567.666 278.884C568.955 278.884 570 279.929 570 281.218Z" fill="black"/>
<path d="M1452 286.218C1452 287.508 1450.95 288.553 1449.67 288.553C1448.38 288.553 1447.33 287.508 1447.33 286.218C1447.33 284.929 1448.38 283.884 1449.67 283.884C1450.95 283.884 1452 284.929 1452 286.218Z" fill="black"/>
<path d="M570 325.103C570 326.392 568.955 327.437 567.666 327.437C566.377 327.437 565.331 326.392 565.331 325.103C565.331 323.813 566.377 322.768 567.666 322.768C568.955 322.768 570 323.813 570 325.103Z" fill="black"/>
<path d="M1452 330.103C1452 331.392 1450.95 332.437 1449.67 332.437C1448.38 332.437 1447.33 331.392 1447.33 330.103C1447.33 328.813 1448.38 327.768 1449.67 327.768C1450.95 327.768 1452 328.813 1452 330.103Z" fill="black"/>
<path d="M570 368.987C570 370.276 568.955 371.321 567.666 371.321C566.377 371.321 565.331 370.276 565.331 368.987C565.331 367.697 566.377 366.652 567.666 366.652C568.955 366.652 570 367.697 570 368.987Z" fill="black"/>
<path d="M1452 373.987C1452 375.276 1450.95 376.321 1449.67 376.321C1448.38 376.321 1447.33 375.276 1447.33 373.987C1447.33 372.697 1448.38 371.652 1449.67 371.652C1450.95 371.652 1452 372.697 1452 373.987Z" fill="black"/>
<path d="M570 412.871C570 414.16 568.955 415.205 567.666 415.205C566.377 415.205 565.331 414.16 565.331 412.871C565.331 411.582 566.377 410.536 567.666 410.536C568.955 410.536 570 411.582 570 412.871Z" fill="black"/>
<path d="M1452 417.871C1452 419.16 1450.95 420.205 1449.67 420.205C1448.38 420.205 1447.33 419.16 1447.33 417.871C1447.33 416.582 1448.38 415.536 1449.67 415.536C1450.95 415.536 1452 416.582 1452 417.871Z" fill="black"/>
<path d="M570 456.755C570 458.044 568.955 459.089 567.666 459.089C566.377 459.089 565.331 458.044 565.331 456.755C565.331 455.466 566.377 454.421 567.666 454.421C568.955 454.421 570 455.466 570 456.755Z" fill="black"/>
<path d="M1452 461.755C1452 463.044 1450.95 464.089 1449.67 464.089C1448.38 464.089 1447.33 463.044 1447.33 461.755C1447.33 460.466 1448.38 459.421 1449.67 459.421C1450.95 459.421 1452 460.466 1452 461.755Z" fill="black"/>
<path d="M570 500.639C570 501.928 568.955 502.973 567.666 502.973C566.377 502.973 565.331 501.928 565.331 500.639C565.331 499.35 566.377 498.305 567.666 498.305C568.955 498.305 570 499.35 570 500.639Z" fill="black"/>
<path d="M1452 505.639C1452 506.928 1450.95 507.973 1449.67 507.973C1448.38 507.973 1447.33 506.928 1447.33 505.639C1447.33 504.35 1448.38 503.305 1449.67 503.305C1450.95 503.305 1452 504.35 1452 505.639Z" fill="black"/>
<path d="M570 544.523C570 545.812 568.955 546.857 567.666 546.857C566.377 546.857 565.331 545.812 565.331 544.523C565.331 543.234 566.377 542.189 567.666 542.189C568.955 542.189 570 543.234 570 544.523Z" fill="black"/>
<path d="M1452 549.523C1452 550.812 1450.95 551.857 1449.67 551.857C1448.38 551.857 1447.33 550.812 1447.33 549.523C1447.33 548.234 1448.38 547.189 1449.67 547.189C1450.95 547.189 1452 548.234 1452 549.523Z" fill="black"/>
<path d="M570 588.407C570 589.696 568.955 590.741 567.666 590.741C566.377 590.741 565.331 589.696 565.331 588.407C565.331 587.118 566.377 586.073 567.666 586.073C568.955 586.073 570 587.118 570 588.407Z" fill="black"/>
<path d="M1452 593.407C1452 594.696 1450.95 595.741 1449.67 595.741C1448.38 595.741 1447.33 594.696 1447.33 593.407C1447.33 592.118 1448.38 591.073 1449.67 591.073C1450.95 591.073 1452 592.118 1452 593.407Z" fill="black"/>
<path d="M570 632.291C570 633.581 568.955 634.626 567.666 634.626C566.377 634.626 565.331 633.581 565.331 632.291C565.331 631.002 566.377 629.957 567.666 629.957C568.955 629.957 570 631.002 570 632.291Z" fill="black"/>
<path d="M1452 637.291C1452 638.581 1450.95 639.626 1449.67 639.626C1448.38 639.626 1447.33 638.581 1447.33 637.291C1447.33 636.002 1448.38 634.957 1449.67 634.957C1450.95 634.957 1452 636.002 1452 637.291Z" fill="black"/>
<path d="M570 676.175C570 677.465 568.955 678.51 567.666 678.51C566.377 678.51 565.331 677.465 565.331 676.175C565.331 674.886 566.377 673.841 567.666 673.841C568.955 673.841 570 674.886 570 676.175Z" fill="black"/>
<path d="M1452 681.175C1452 682.465 1450.95 683.51 1449.67 683.51C1448.38 683.51 1447.33 682.465 1447.33 681.175C1447.33 679.886 1448.38 678.841 1449.67 678.841C1450.95 678.841 1452 679.886 1452 681.175Z" fill="black"/>
</g>
</g>
</svg>
