<svg width="27" height="27" viewBox="0 0 27 27" fill="none" xmlns="http://www.w3.org/2000/svg">
<path fill-rule="evenodd" clip-rule="evenodd" d="M13.0114 3.25293C10.361 3.25293 10.0292 3.26399 8.98831 3.31148C7.94934 3.35897 7.23957 3.52422 6.61893 3.76558C5.96835 4.01019 5.37829 4.39403 4.89036 4.89107C4.39412 5.37843 4.01004 5.96809 3.76487 6.61899C3.52481 7.23963 3.35891 7.95006 3.31142 8.98902C3.26458 10.0293 3.25287 10.3604 3.25287 13.0115C3.25287 15.6626 3.26393 15.9937 3.31142 17.0346C3.35891 18.0736 3.52416 18.7834 3.76552 19.404C4.01013 20.0546 4.39397 20.6447 4.89101 21.1326C5.37839 21.6288 5.96803 22.0129 6.61893 22.2581C7.23957 22.4988 7.94934 22.664 8.98831 22.7115C10.0292 22.759 10.361 22.7701 13.0114 22.7701C15.6619 22.7701 15.9937 22.759 17.0346 22.7115C18.0735 22.664 18.7833 22.4988 19.404 22.2574C20.0545 22.0128 20.6446 21.629 21.1325 21.1319C21.6288 20.6446 22.0128 20.0549 22.258 19.404C22.4987 18.7834 22.664 18.0736 22.7115 17.0346C22.759 15.9937 22.77 15.6619 22.77 13.0115C22.77 10.3611 22.759 10.0293 22.7115 8.98837C22.664 7.94941 22.4987 7.23963 22.2574 6.61899C22.0124 5.96781 21.6283 5.37791 21.1319 4.89042C20.6445 4.39418 20.0549 4.0101 19.404 3.76493C18.7833 3.52487 18.0729 3.35897 17.0339 3.31148C15.9937 3.26464 15.6625 3.25293 13.0114 3.25293ZM13.0114 5.01142C15.617 5.01142 15.926 5.02118 16.9552 5.06802C17.9063 5.11161 18.4229 5.2697 18.767 5.40437C19.2224 5.58067 19.5477 5.79276 19.8893 6.13366C20.2308 6.47521 20.4423 6.8005 20.6186 7.2559C20.7526 7.60005 20.9113 8.1166 20.9549 9.06774C21.0018 10.0969 21.0115 10.406 21.0115 13.0115C21.0115 15.617 21.0018 15.9261 20.9549 16.9553C20.9113 17.9064 20.7532 18.423 20.6186 18.7671C20.4624 19.191 20.2132 19.5745 19.8893 19.8893C19.5745 20.2133 19.191 20.4625 18.767 20.6186C18.4229 20.7527 17.9063 20.9114 16.9552 20.955C15.926 21.0018 15.6176 21.0116 13.0114 21.0116C10.4053 21.0116 10.0969 21.0018 9.06768 20.955C8.11654 20.9114 7.59999 20.7533 7.25583 20.6186C6.83196 20.4625 6.44848 20.2132 6.1336 19.8893C5.80973 19.5744 5.56053 19.191 5.40431 18.7671C5.27029 18.423 5.11155 17.9064 5.06796 16.9553C5.02112 15.9261 5.01136 15.617 5.01136 13.0115C5.01136 10.406 5.02112 10.0969 5.06796 9.06774C5.11155 8.1166 5.26964 7.60005 5.40431 7.2559C5.58061 6.8005 5.7927 6.47521 6.1336 6.13366C6.44844 5.8097 6.83193 5.56049 7.25583 5.40437C7.59999 5.27035 8.11654 5.11161 9.06768 5.06802C10.0969 5.02118 10.4059 5.01142 13.0114 5.01142V5.01142Z" fill="#E2EAEE"/>
<path fill-rule="evenodd" clip-rule="evenodd" d="M13.0114 16.2675C12.5838 16.2675 12.1604 16.1833 11.7654 16.0197C11.3703 15.856 11.0114 15.6162 10.709 15.3138C10.4066 15.0115 10.1668 14.6525 10.0032 14.2575C9.83953 13.8624 9.75531 13.439 9.75531 13.0114C9.75531 12.5838 9.83953 12.1604 10.0032 11.7653C10.1668 11.3703 10.4066 11.0113 10.709 10.709C11.0114 10.4066 11.3703 10.1668 11.7654 10.0031C12.1604 9.83951 12.5838 9.75529 13.0114 9.75529C13.875 9.75529 14.7032 10.0983 15.3138 10.709C15.9245 11.3196 16.2675 12.1478 16.2675 13.0114C16.2675 13.875 15.9245 14.7032 15.3138 15.3138C14.7032 15.9245 13.875 16.2675 13.0114 16.2675V16.2675ZM13.0114 7.9955C11.6811 7.9955 10.4053 8.52396 9.46464 9.46462C8.52397 10.4053 7.99551 11.6811 7.99551 13.0114C7.99551 14.3417 8.52397 15.6175 9.46464 16.5582C10.4053 17.4988 11.6811 18.0273 13.0114 18.0273C14.3417 18.0273 15.6175 17.4988 16.5582 16.5582C17.4989 15.6175 18.0273 14.3417 18.0273 13.0114C18.0273 11.6811 17.4989 10.4053 16.5582 9.46462C15.6175 8.52396 14.3417 7.9955 13.0114 7.9955V7.9955ZM19.4866 7.90442C19.4866 8.21887 19.3616 8.52045 19.1393 8.74281C18.9169 8.96517 18.6153 9.09008 18.3009 9.09008C17.9864 9.09008 17.6849 8.96517 17.4625 8.74281C17.2401 8.52045 17.1152 8.21887 17.1152 7.90442C17.1152 7.58996 17.2401 7.28838 17.4625 7.06602C17.6849 6.84367 17.9864 6.71875 18.3009 6.71875C18.6153 6.71875 18.9169 6.84367 19.1393 7.06602C19.3616 7.28838 19.4866 7.58996 19.4866 7.90442" fill="#E2EAEE"/>
</svg>
