<svg width="20" height="20" viewBox="0 0 20 20" fill="none" xmlns="http://www.w3.org/2000/svg">
<path d="M19.53 1.68801V18.335C19.53 18.7156 19.3788 19.0806 19.1097 19.3497C18.8406 19.6189 18.4755 19.7701 18.0949 19.7701H1.44796C1.06735 19.7701 0.702335 19.6189 0.433205 19.3497C0.164074 19.0806 0.0128784 18.7156 0.0128784 18.335L0.0128784 1.68801C0.0128784 1.30741 0.164074 0.942387 0.433205 0.673256C0.702335 0.404126 1.06735 0.25293 1.44796 0.25293L18.0949 0.25293C18.4755 0.25293 18.8406 0.404126 19.1097 0.673256C19.3788 0.942387 19.53 1.30741 19.53 1.68801V1.68801ZM5.75321 7.71537H2.88305V16.8999H5.75321V7.71537ZM6.01153 4.55818C6.01304 4.34108 5.97178 4.1258 5.89009 3.92464C5.8084 3.72349 5.68789 3.54039 5.53544 3.38581C5.38299 3.23122 5.20159 3.10818 5.00158 3.02371C4.80158 2.93924 4.5869 2.89499 4.36979 2.89348H4.31813C3.87663 2.89348 3.4532 3.06887 3.14101 3.38106C2.82882 3.69325 2.65343 4.11668 2.65343 4.55818C2.65343 4.99969 2.82882 5.42311 3.14101 5.7353C3.4532 6.04749 3.87663 6.22288 4.31813 6.22288V6.22288C4.53525 6.22822 4.7513 6.19073 4.95392 6.11255C5.15655 6.03436 5.34178 5.91702 5.49904 5.76722C5.6563 5.61743 5.7825 5.43811 5.87044 5.23952C5.95837 5.04094 6.00632 4.82697 6.01153 4.60984V4.55818ZM16.6599 11.3203C16.6599 8.5592 14.9033 7.48575 13.1582 7.48575C12.5869 7.45714 12.018 7.57884 11.5083 7.8387C10.9987 8.09857 10.5661 8.48752 10.2536 8.96676H10.1733V7.71537H7.47532V16.8999H10.3455V12.0149C10.304 11.5146 10.4616 11.0181 10.784 10.6333C11.1065 10.2485 11.5677 10.0065 12.0676 9.95984H12.1767C13.0894 9.95984 13.7667 10.5339 13.7667 11.9804V16.8999H16.6369L16.6599 11.3203Z" fill="#E2EAEE"/>
</svg>
