<svg width="328" height="103" viewBox="0 0 328 103" fill="none" xmlns="http://www.w3.org/2000/svg">
<path d="M47.0588 102.806C46.2728 102.806 45.7113 102.437 45.3745 101.699L0.235221 2.79362C-0.270069 1.60097 0.0387195 0.749079 1.16159 0.237943C2.28445 -0.273194 3.1266 0.0391675 3.68804 1.17503L47.0588 96.3316L90.5137 1.17503C91.019 0.0391675 91.8611 -0.273194 93.0402 0.237943C94.163 0.749079 94.4718 1.60097 93.9665 2.79362L48.8273 101.699C48.4904 102.437 47.9009 102.806 47.0588 102.806Z" fill="white"/>
<path d="M125.21 3.8159C121.561 3.8159 118.473 5.12213 115.947 7.73461C113.364 10.3471 112.073 13.4991 112.073 17.1906V85.6829C112.073 89.3744 113.364 92.4981 115.947 95.0537C118.473 97.6662 121.561 98.9724 125.21 98.9724H185.424C189.017 98.9724 192.105 97.6662 194.688 95.0537C197.27 92.4981 198.562 89.3744 198.562 85.6829V17.1906C198.562 13.4991 197.27 10.3471 194.688 7.73461C192.105 5.12213 189.017 3.8159 185.424 3.8159H125.21ZM125.21 102.806C120.55 102.806 116.564 101.131 113.252 97.7798C109.939 94.429 108.283 90.3967 108.283 85.6829V17.1906C108.283 12.4768 109.939 8.44452 113.252 5.09374C116.564 1.74296 120.55 0.067564 125.21 0.067564H185.424C190.084 0.067564 194.07 1.74296 197.383 5.09374C200.695 8.44452 202.351 12.4768 202.351 17.1906V85.6829C202.351 90.3967 200.695 94.429 197.383 97.7798C194.07 101.131 190.084 102.806 185.424 102.806H125.21Z" fill="white"/>
<path d="M218.184 102.806C217.342 102.806 216.752 102.437 216.415 101.699C216.078 100.903 216.191 100.222 216.752 99.654L304.167 3.8159H218.184C216.892 3.8159 216.247 3.19117 216.247 1.94173C216.247 0.692286 216.892 0.067564 218.184 0.067564H308.462C309.248 0.067564 309.81 0.436718 310.146 1.17503C310.483 1.97013 310.371 2.65164 309.81 3.21957L222.479 98.9724H308.462C309.697 98.9724 310.315 99.6256 310.315 100.932C310.315 102.181 309.697 102.806 308.462 102.806H218.184Z" fill="white"/>
<path d="M326.063 102.806C324.828 102.806 324.21 102.181 324.21 100.932V1.94173C324.21 0.692286 324.828 0.067564 326.063 0.067564C327.354 0.067564 328 0.692286 328 1.94173V100.932C328 102.181 327.354 102.806 326.063 102.806Z" fill="white"/>
<path d="M148.54 44.65C148.54 44.0076 149.055 43.4869 149.69 43.4869H162.338C162.973 43.4869 163.488 44.0076 163.488 44.65V57.4443C163.488 58.0867 162.973 58.6074 162.338 58.6074H149.69C149.055 58.6074 148.54 58.0867 148.54 57.4443V44.65Z" fill="#00FFF0"/>
</svg>
