<svg width="1155" height="637" viewBox="0 0 1155 637" fill="none" xmlns="http://www.w3.org/2000/svg">
<circle cx="78" cy="4" r="4" fill="#6C6C6C"/>
<circle cx="189" cy="4" r="4" fill="#6C6C6C"/>
<circle cx="115" cy="4" r="4" fill="#6C6C6C"/>
<circle cx="4" cy="4" r="4" fill="#6C6C6C"/>
<circle cx="152" cy="4" r="4" fill="#6C6C6C"/>
<circle cx="41" cy="4" r="4" fill="#6C6C6C"/>
<circle cx="78" cy="41" r="4" fill="#6C6C6C"/>
<circle cx="189" cy="41" r="4" fill="#6C6C6C"/>
<circle cx="115" cy="41" r="4" fill="#6C6C6C"/>
<circle cx="4" cy="41" r="4" fill="#6C6C6C"/>
<circle cx="152" cy="41" r="4" fill="#6C6C6C"/>
<circle cx="41" cy="41" r="4" fill="#6C6C6C"/>
<circle cx="78" cy="263" r="4" fill="#6C6C6C"/>
<circle cx="189" cy="263" r="4" fill="#6C6C6C"/>
<circle cx="115" cy="263" r="4" fill="#6C6C6C"/>
<circle cx="4" cy="263" r="4" fill="#6C6C6C"/>
<circle cx="152" cy="263" r="4" fill="#6C6C6C"/>
<circle cx="41" cy="263" r="4" fill="#6C6C6C"/>
<circle cx="78" cy="152" r="4" fill="#6C6C6C"/>
<circle cx="189" cy="152" r="4" fill="#6C6C6C"/>
<circle cx="115" cy="152" r="4" fill="#6C6C6C"/>
<circle cx="4" cy="152" r="4" fill="#6C6C6C"/>
<circle cx="152" cy="152" r="4" fill="#6C6C6C"/>
<circle cx="41" cy="152" r="4" fill="#6C6C6C"/>
<circle cx="78" cy="374" r="4" fill="#6C6C6C"/>
<circle cx="189" cy="374" r="4" fill="#6C6C6C"/>
<circle cx="115" cy="374" r="4" fill="#6C6C6C"/>
<circle cx="4" cy="374" r="4" fill="#6C6C6C"/>
<circle cx="152" cy="374" r="4" fill="#6C6C6C"/>
<circle cx="41" cy="374" r="4" fill="#6C6C6C"/>
<circle cx="78" cy="559" r="4" fill="#6C6C6C"/>
<circle cx="189" cy="559" r="4" fill="#6C6C6C"/>
<circle cx="115" cy="559" r="4" fill="#6C6C6C"/>
<circle cx="4" cy="559" r="4" fill="#6C6C6C"/>
<circle cx="152" cy="559" r="4" fill="#6C6C6C"/>
<circle cx="41" cy="559" r="4" fill="#6C6C6C"/>
<circle cx="78" cy="78" r="4" fill="#6C6C6C"/>
<circle cx="189" cy="78" r="4" fill="#6C6C6C"/>
<circle cx="115" cy="78" r="4" fill="#6C6C6C"/>
<circle cx="4" cy="78" r="4" fill="#6C6C6C"/>
<circle cx="152" cy="78" r="4" fill="#6C6C6C"/>
<circle cx="41" cy="78" r="4" fill="#6C6C6C"/>
<circle cx="78" cy="300" r="4" fill="#6C6C6C"/>
<circle cx="189" cy="300" r="4" fill="#6C6C6C"/>
<circle cx="115" cy="300" r="4" fill="#6C6C6C"/>
<circle cx="4" cy="300" r="4" fill="#6C6C6C"/>
<circle cx="152" cy="300" r="4" fill="#6C6C6C"/>
<circle cx="41" cy="300" r="4" fill="#6C6C6C"/>
<circle cx="78" cy="485" r="4" fill="#6C6C6C"/>
<circle cx="189" cy="485" r="4" fill="#6C6C6C"/>
<circle cx="115" cy="485" r="4" fill="#6C6C6C"/>
<circle cx="4" cy="485" r="4" fill="#6C6C6C"/>
<circle cx="152" cy="485" r="4" fill="#6C6C6C"/>
<circle cx="41" cy="485" r="4" fill="#6C6C6C"/>
<circle cx="78" cy="189" r="4" fill="#6C6C6C"/>
<circle cx="189" cy="189" r="4" fill="#6C6C6C"/>
<circle cx="115" cy="189" r="4" fill="#6C6C6C"/>
<circle cx="4" cy="189" r="4" fill="#6C6C6C"/>
<circle cx="152" cy="189" r="4" fill="#6C6C6C"/>
<circle cx="41" cy="189" r="4" fill="#6C6C6C"/>
<circle cx="78" cy="411" r="4" fill="#6C6C6C"/>
<circle cx="189" cy="411" r="4" fill="#6C6C6C"/>
<circle cx="115" cy="411" r="4" fill="#6C6C6C"/>
<circle cx="4" cy="411" r="4" fill="#6C6C6C"/>
<circle cx="152" cy="411" r="4" fill="#6C6C6C"/>
<circle cx="41" cy="411" r="4" fill="#6C6C6C"/>
<circle cx="78" cy="596" r="4" fill="#6C6C6C"/>
<circle cx="189" cy="596" r="4" fill="#6C6C6C"/>
<circle cx="115" cy="596" r="4" fill="#6C6C6C"/>
<circle cx="4" cy="596" r="4" fill="#6C6C6C"/>
<circle cx="152" cy="596" r="4" fill="#6C6C6C"/>
<circle cx="41" cy="596" r="4" fill="#6C6C6C"/>
<circle cx="78" cy="115" r="4" fill="#6C6C6C"/>
<circle cx="189" cy="115" r="4" fill="#6C6C6C"/>
<circle cx="115" cy="115" r="4" fill="#6C6C6C"/>
<circle cx="4" cy="115" r="4" fill="#6C6C6C"/>
<circle cx="152" cy="115" r="4" fill="#6C6C6C"/>
<circle cx="41" cy="115" r="4" fill="#6C6C6C"/>
<circle cx="78" cy="337" r="4" fill="#6C6C6C"/>
<circle cx="189" cy="337" r="4" fill="#6C6C6C"/>
<circle cx="115" cy="337" r="4" fill="#6C6C6C"/>
<circle cx="4" cy="337" r="4" fill="#6C6C6C"/>
<circle cx="152" cy="337" r="4" fill="#6C6C6C"/>
<circle cx="41" cy="337" r="4" fill="#6C6C6C"/>
<circle cx="78" cy="522" r="4" fill="#6C6C6C"/>
<circle cx="189" cy="522" r="4" fill="#6C6C6C"/>
<circle cx="115" cy="522" r="4" fill="#6C6C6C"/>
<circle cx="4" cy="522" r="4" fill="#6C6C6C"/>
<circle cx="152" cy="522" r="4" fill="#6C6C6C"/>
<circle cx="41" cy="522" r="4" fill="#6C6C6C"/>
<circle cx="78" cy="226" r="4" fill="#6C6C6C"/>
<circle cx="189" cy="226" r="4" fill="#6C6C6C"/>
<circle cx="115" cy="226" r="4" fill="#6C6C6C"/>
<circle cx="4" cy="226" r="4" fill="#6C6C6C"/>
<circle cx="152" cy="226" r="4" fill="#6C6C6C"/>
<circle cx="41" cy="226" r="4" fill="#6C6C6C"/>
<circle cx="78" cy="448" r="4" fill="#6C6C6C"/>
<circle cx="189" cy="448" r="4" fill="#6C6C6C"/>
<circle cx="115" cy="448" r="4" fill="#6C6C6C"/>
<circle cx="4" cy="448" r="4" fill="#6C6C6C"/>
<circle cx="152" cy="448" r="4" fill="#6C6C6C"/>
<circle cx="41" cy="448" r="4" fill="#6C6C6C"/>
<circle cx="78" cy="633" r="4" fill="#6C6C6C"/>
<circle cx="189" cy="633" r="4" fill="#6C6C6C"/>
<circle cx="115" cy="633" r="4" fill="#6C6C6C"/>
<circle cx="4" cy="633" r="4" fill="#6C6C6C"/>
<circle cx="152" cy="633" r="4" fill="#6C6C6C"/>
<circle cx="41" cy="633" r="4" fill="#6C6C6C"/>
<circle cx="300" cy="4" r="4" fill="#6C6C6C"/>
<circle cx="522" cy="4" r="4" fill="#6C6C6C"/>
<circle cx="744" cy="4" r="4" fill="#6C6C6C"/>
<circle cx="966" cy="4" r="4" fill="#6C6C6C"/>
<circle cx="411" cy="4" r="4" fill="#6C6C6C"/>
<circle cx="633" cy="4" r="4" fill="#6C6C6C"/>
<circle cx="855" cy="4" r="4" fill="#6C6C6C"/>
<circle cx="1077" cy="4" r="4" fill="#6C6C6C"/>
<circle cx="337" cy="4" r="4" fill="#6C6C6C"/>
<circle cx="559" cy="4" r="4" fill="#6C6C6C"/>
<circle cx="781" cy="4" r="4" fill="#6C6C6C"/>
<circle cx="1003" cy="4" r="4" fill="#6C6C6C"/>
<circle cx="226" cy="4" r="4" fill="#6C6C6C"/>
<circle cx="448" cy="4" r="4" fill="#6C6C6C"/>
<circle cx="670" cy="4" r="4" fill="#6C6C6C"/>
<circle cx="892" cy="4" r="4" fill="#6C6C6C"/>
<circle cx="1114" cy="4" r="4" fill="#6C6C6C"/>
<circle cx="374" cy="4" r="4" fill="#6C6C6C"/>
<circle cx="596" cy="4" r="4" fill="#6C6C6C"/>
<circle cx="818" cy="4" r="4" fill="#6C6C6C"/>
<circle cx="1040" cy="4" r="4" fill="#6C6C6C"/>
<circle cx="263" cy="4" r="4" fill="#6C6C6C"/>
<circle cx="485" cy="4" r="4" fill="#6C6C6C"/>
<circle cx="707" cy="4" r="4" fill="#6C6C6C"/>
<circle cx="929" cy="4" r="4" fill="#6C6C6C"/>
<circle cx="1151" cy="4" r="4" fill="#6C6C6C"/>
<circle cx="300" cy="41" r="4" fill="#6C6C6C"/>
<circle cx="522" cy="41" r="4" fill="#6C6C6C"/>
<circle cx="744" cy="41" r="4" fill="#6C6C6C"/>
<circle cx="966" cy="41" r="4" fill="#6C6C6C"/>
<circle cx="411" cy="41" r="4" fill="#6C6C6C"/>
<circle cx="633" cy="41" r="4" fill="#6C6C6C"/>
<circle cx="855" cy="41" r="4" fill="#6C6C6C"/>
<circle cx="1077" cy="41" r="4" fill="#6C6C6C"/>
<circle cx="337" cy="41" r="4" fill="#6C6C6C"/>
<circle cx="559" cy="41" r="4" fill="#6C6C6C"/>
<circle cx="781" cy="41" r="4" fill="#6C6C6C"/>
<circle cx="1003" cy="41" r="4" fill="#6C6C6C"/>
<circle cx="226" cy="41" r="4" fill="#6C6C6C"/>
<circle cx="448" cy="41" r="4" fill="#6C6C6C"/>
<circle cx="670" cy="41" r="4" fill="#6C6C6C"/>
<circle cx="892" cy="41" r="4" fill="#6C6C6C"/>
<circle cx="1114" cy="41" r="4" fill="#6C6C6C"/>
<circle cx="374" cy="41" r="4" fill="#6C6C6C"/>
<circle cx="596" cy="41" r="4" fill="#6C6C6C"/>
<circle cx="818" cy="41" r="4" fill="#6C6C6C"/>
<circle cx="1040" cy="41" r="4" fill="#6C6C6C"/>
<circle cx="263" cy="41" r="4" fill="#6C6C6C"/>
<circle cx="485" cy="41" r="4" fill="#6C6C6C"/>
<circle cx="707" cy="41" r="4" fill="#6C6C6C"/>
<circle cx="929" cy="41" r="4" fill="#6C6C6C"/>
<circle cx="1151" cy="41" r="4" fill="#6C6C6C"/>
<circle cx="300" cy="263" r="4" fill="#6C6C6C"/>
<circle cx="522" cy="263" r="4" fill="#6C6C6C"/>
<circle cx="744" cy="263" r="4" fill="#6C6C6C"/>
<circle cx="966" cy="263" r="4" fill="#6C6C6C"/>
<circle cx="411" cy="263" r="4" fill="#6C6C6C"/>
<circle cx="633" cy="263" r="4" fill="#6C6C6C"/>
<circle cx="855" cy="263" r="4" fill="#6C6C6C"/>
<circle cx="1077" cy="263" r="4" fill="#6C6C6C"/>
<circle cx="337" cy="263" r="4" fill="#6C6C6C"/>
<circle cx="559" cy="263" r="4" fill="#6C6C6C"/>
<circle cx="781" cy="263" r="4" fill="#6C6C6C"/>
<circle cx="1003" cy="263" r="4" fill="#6C6C6C"/>
<circle cx="226" cy="263" r="4" fill="#6C6C6C"/>
<circle cx="448" cy="263" r="4" fill="#6C6C6C"/>
<circle cx="670" cy="263" r="4" fill="#6C6C6C"/>
<circle cx="892" cy="263" r="4" fill="#6C6C6C"/>
<circle cx="1114" cy="263" r="4" fill="#6C6C6C"/>
<circle cx="374" cy="263" r="4" fill="#6C6C6C"/>
<circle cx="596" cy="263" r="4" fill="#6C6C6C"/>
<circle cx="818" cy="263" r="4" fill="#6C6C6C"/>
<circle cx="1040" cy="263" r="4" fill="#6C6C6C"/>
<circle cx="263" cy="263" r="4" fill="#6C6C6C"/>
<circle cx="485" cy="263" r="4" fill="#6C6C6C"/>
<circle cx="707" cy="263" r="4" fill="#6C6C6C"/>
<circle cx="929" cy="263" r="4" fill="#6C6C6C"/>
<circle cx="1151" cy="263" r="4" fill="#6C6C6C"/>
<circle cx="300" cy="152" r="4" fill="#6C6C6C"/>
<circle cx="522" cy="152" r="4" fill="#6C6C6C"/>
<circle cx="744" cy="152" r="4" fill="#6C6C6C"/>
<circle cx="966" cy="152" r="4" fill="#6C6C6C"/>
<circle cx="411" cy="152" r="4" fill="#6C6C6C"/>
<circle cx="633" cy="152" r="4" fill="#6C6C6C"/>
<circle cx="855" cy="152" r="4" fill="#6C6C6C"/>
<circle cx="1077" cy="152" r="4" fill="#6C6C6C"/>
<circle cx="337" cy="152" r="4" fill="#6C6C6C"/>
<circle cx="559" cy="152" r="4" fill="#6C6C6C"/>
<circle cx="781" cy="152" r="4" fill="#6C6C6C"/>
<circle cx="1003" cy="152" r="4" fill="#6C6C6C"/>
<circle cx="226" cy="152" r="4" fill="#6C6C6C"/>
<circle cx="448" cy="152" r="4" fill="#6C6C6C"/>
<circle cx="670" cy="152" r="4" fill="#6C6C6C"/>
<circle cx="892" cy="152" r="4" fill="#6C6C6C"/>
<circle cx="1114" cy="152" r="4" fill="#6C6C6C"/>
<circle cx="374" cy="152" r="4" fill="#6C6C6C"/>
<circle cx="596" cy="152" r="4" fill="#6C6C6C"/>
<circle cx="818" cy="152" r="4" fill="#6C6C6C"/>
<circle cx="1040" cy="152" r="4" fill="#6C6C6C"/>
<circle cx="263" cy="152" r="4" fill="#6C6C6C"/>
<circle cx="485" cy="152" r="4" fill="#6C6C6C"/>
<circle cx="707" cy="152" r="4" fill="#6C6C6C"/>
<circle cx="929" cy="152" r="4" fill="#6C6C6C"/>
<circle cx="1151" cy="152" r="4" fill="#6C6C6C"/>
<circle cx="300" cy="374" r="4" fill="#6C6C6C"/>
<circle cx="522" cy="374" r="4" fill="#6C6C6C"/>
<circle cx="744" cy="374" r="4" fill="#6C6C6C"/>
<circle cx="966" cy="374" r="4" fill="#6C6C6C"/>
<circle cx="411" cy="374" r="4" fill="#6C6C6C"/>
<circle cx="633" cy="374" r="4" fill="#6C6C6C"/>
<circle cx="855" cy="374" r="4" fill="#6C6C6C"/>
<circle cx="1077" cy="374" r="4" fill="#6C6C6C"/>
<circle cx="337" cy="374" r="4" fill="#6C6C6C"/>
<circle cx="559" cy="374" r="4" fill="#6C6C6C"/>
<circle cx="781" cy="374" r="4" fill="#6C6C6C"/>
<circle cx="1003" cy="374" r="4" fill="#6C6C6C"/>
<circle cx="226" cy="374" r="4" fill="#6C6C6C"/>
<circle cx="448" cy="374" r="4" fill="#6C6C6C"/>
<circle cx="670" cy="374" r="4" fill="#6C6C6C"/>
<circle cx="892" cy="374" r="4" fill="#6C6C6C"/>
<circle cx="1114" cy="374" r="4" fill="#6C6C6C"/>
<circle cx="374" cy="374" r="4" fill="#6C6C6C"/>
<circle cx="596" cy="374" r="4" fill="#6C6C6C"/>
<circle cx="818" cy="374" r="4" fill="#6C6C6C"/>
<circle cx="1040" cy="374" r="4" fill="#6C6C6C"/>
<circle cx="263" cy="374" r="4" fill="#6C6C6C"/>
<circle cx="485" cy="374" r="4" fill="#6C6C6C"/>
<circle cx="707" cy="374" r="4" fill="#6C6C6C"/>
<circle cx="929" cy="374" r="4" fill="#6C6C6C"/>
<circle cx="1151" cy="374" r="4" fill="#6C6C6C"/>
<circle cx="300" cy="559" r="4" fill="#6C6C6C"/>
<circle cx="522" cy="559" r="4" fill="#6C6C6C"/>
<circle cx="744" cy="559" r="4" fill="#6C6C6C"/>
<circle cx="966" cy="559" r="4" fill="#6C6C6C"/>
<circle cx="411" cy="559" r="4" fill="#6C6C6C"/>
<circle cx="633" cy="559" r="4" fill="#6C6C6C"/>
<circle cx="855" cy="559" r="4" fill="#6C6C6C"/>
<circle cx="1077" cy="559" r="4" fill="#6C6C6C"/>
<circle cx="337" cy="559" r="4" fill="#6C6C6C"/>
<circle cx="559" cy="559" r="4" fill="#6C6C6C"/>
<circle cx="781" cy="559" r="4" fill="#6C6C6C"/>
<circle cx="1003" cy="559" r="4" fill="#6C6C6C"/>
<circle cx="226" cy="559" r="4" fill="#6C6C6C"/>
<circle cx="448" cy="559" r="4" fill="#6C6C6C"/>
<circle cx="670" cy="559" r="4" fill="#6C6C6C"/>
<circle cx="892" cy="559" r="4" fill="#6C6C6C"/>
<circle cx="1114" cy="559" r="4" fill="#6C6C6C"/>
<circle cx="374" cy="559" r="4" fill="#6C6C6C"/>
<circle cx="596" cy="559" r="4" fill="#6C6C6C"/>
<circle cx="818" cy="559" r="4" fill="#6C6C6C"/>
<circle cx="1040" cy="559" r="4" fill="#6C6C6C"/>
<circle cx="263" cy="559" r="4" fill="#6C6C6C"/>
<circle cx="485" cy="559" r="4" fill="#6C6C6C"/>
<circle cx="707" cy="559" r="4" fill="#6C6C6C"/>
<circle cx="929" cy="559" r="4" fill="#6C6C6C"/>
<circle cx="1151" cy="559" r="4" fill="#6C6C6C"/>
<circle cx="300" cy="78" r="4" fill="#6C6C6C"/>
<circle cx="522" cy="78" r="4" fill="#6C6C6C"/>
<circle cx="744" cy="78" r="4" fill="#6C6C6C"/>
<circle cx="966" cy="78" r="4" fill="#6C6C6C"/>
<circle cx="411" cy="78" r="4" fill="#6C6C6C"/>
<circle cx="633" cy="78" r="4" fill="#6C6C6C"/>
<circle cx="855" cy="78" r="4" fill="#6C6C6C"/>
<circle cx="1077" cy="78" r="4" fill="#6C6C6C"/>
<circle cx="337" cy="78" r="4" fill="#6C6C6C"/>
<circle cx="559" cy="78" r="4" fill="#6C6C6C"/>
<circle cx="781" cy="78" r="4" fill="#6C6C6C"/>
<circle cx="1003" cy="78" r="4" fill="#6C6C6C"/>
<circle cx="226" cy="78" r="4" fill="#6C6C6C"/>
<circle cx="448" cy="78" r="4" fill="#6C6C6C"/>
<circle cx="670" cy="78" r="4" fill="#6C6C6C"/>
<circle cx="892" cy="78" r="4" fill="#6C6C6C"/>
<circle cx="1114" cy="78" r="4" fill="#6C6C6C"/>
<circle cx="374" cy="78" r="4" fill="#6C6C6C"/>
<circle cx="596" cy="78" r="4" fill="#6C6C6C"/>
<circle cx="818" cy="78" r="4" fill="#6C6C6C"/>
<circle cx="1040" cy="78" r="4" fill="#6C6C6C"/>
<circle cx="263" cy="78" r="4" fill="#6C6C6C"/>
<circle cx="485" cy="78" r="4" fill="#6C6C6C"/>
<circle cx="707" cy="78" r="4" fill="#6C6C6C"/>
<circle cx="929" cy="78" r="4" fill="#6C6C6C"/>
<circle cx="1151" cy="78" r="4" fill="#6C6C6C"/>
<circle cx="300" cy="300" r="4" fill="#6C6C6C"/>
<circle cx="522" cy="300" r="4" fill="#6C6C6C"/>
<circle cx="744" cy="300" r="4" fill="#6C6C6C"/>
<circle cx="966" cy="300" r="4" fill="#6C6C6C"/>
<circle cx="411" cy="300" r="4" fill="#6C6C6C"/>
<circle cx="633" cy="300" r="4" fill="#6C6C6C"/>
<circle cx="855" cy="300" r="4" fill="#6C6C6C"/>
<circle cx="1077" cy="300" r="4" fill="#6C6C6C"/>
<circle cx="337" cy="300" r="4" fill="#6C6C6C"/>
<circle cx="559" cy="300" r="4" fill="#6C6C6C"/>
<circle cx="781" cy="300" r="4" fill="#6C6C6C"/>
<circle cx="1003" cy="300" r="4" fill="#6C6C6C"/>
<circle cx="226" cy="300" r="4" fill="#6C6C6C"/>
<circle cx="448" cy="300" r="4" fill="#6C6C6C"/>
<circle cx="670" cy="300" r="4" fill="#6C6C6C"/>
<circle cx="892" cy="300" r="4" fill="#6C6C6C"/>
<circle cx="1114" cy="300" r="4" fill="#6C6C6C"/>
<circle cx="374" cy="300" r="4" fill="#6C6C6C"/>
<circle cx="596" cy="300" r="4" fill="#6C6C6C"/>
<circle cx="818" cy="300" r="4" fill="#6C6C6C"/>
<circle cx="1040" cy="300" r="4" fill="#6C6C6C"/>
<circle cx="263" cy="300" r="4" fill="#6C6C6C"/>
<circle cx="485" cy="300" r="4" fill="#6C6C6C"/>
<circle cx="707" cy="300" r="4" fill="#6C6C6C"/>
<circle cx="929" cy="300" r="4" fill="#6C6C6C"/>
<circle cx="1151" cy="300" r="4" fill="#6C6C6C"/>
<circle cx="300" cy="485" r="4" fill="#6C6C6C"/>
<circle cx="522" cy="485" r="4" fill="#6C6C6C"/>
<circle cx="744" cy="485" r="4" fill="#6C6C6C"/>
<circle cx="966" cy="485" r="4" fill="#6C6C6C"/>
<circle cx="411" cy="485" r="4" fill="#6C6C6C"/>
<circle cx="633" cy="485" r="4" fill="#6C6C6C"/>
<circle cx="855" cy="485" r="4" fill="#6C6C6C"/>
<circle cx="1077" cy="485" r="4" fill="#6C6C6C"/>
<circle cx="337" cy="485" r="4" fill="#6C6C6C"/>
<circle cx="559" cy="485" r="4" fill="#6C6C6C"/>
<circle cx="781" cy="485" r="4" fill="#6C6C6C"/>
<circle cx="1003" cy="485" r="4" fill="#6C6C6C"/>
<circle cx="226" cy="485" r="4" fill="#6C6C6C"/>
<circle cx="448" cy="485" r="4" fill="#6C6C6C"/>
<circle cx="670" cy="485" r="4" fill="#6C6C6C"/>
<circle cx="892" cy="485" r="4" fill="#6C6C6C"/>
<circle cx="1114" cy="485" r="4" fill="#6C6C6C"/>
<circle cx="374" cy="485" r="4" fill="#6C6C6C"/>
<circle cx="596" cy="485" r="4" fill="#6C6C6C"/>
<circle cx="818" cy="485" r="4" fill="#6C6C6C"/>
<circle cx="1040" cy="485" r="4" fill="#6C6C6C"/>
<circle cx="263" cy="485" r="4" fill="#6C6C6C"/>
<circle cx="485" cy="485" r="4" fill="#6C6C6C"/>
<circle cx="707" cy="485" r="4" fill="#6C6C6C"/>
<circle cx="929" cy="485" r="4" fill="#6C6C6C"/>
<circle cx="1151" cy="485" r="4" fill="#6C6C6C"/>
<circle cx="300" cy="189" r="4" fill="#6C6C6C"/>
<circle cx="522" cy="189" r="4" fill="#6C6C6C"/>
<circle cx="744" cy="189" r="4" fill="#6C6C6C"/>
<circle cx="966" cy="189" r="4" fill="#6C6C6C"/>
<circle cx="411" cy="189" r="4" fill="#6C6C6C"/>
<circle cx="633" cy="189" r="4" fill="#6C6C6C"/>
<circle cx="855" cy="189" r="4" fill="#6C6C6C"/>
<circle cx="1077" cy="189" r="4" fill="#6C6C6C"/>
<circle cx="337" cy="189" r="4" fill="#6C6C6C"/>
<circle cx="559" cy="189" r="4" fill="#6C6C6C"/>
<circle cx="781" cy="189" r="4" fill="#6C6C6C"/>
<circle cx="1003" cy="189" r="4" fill="#6C6C6C"/>
<circle cx="226" cy="189" r="4" fill="#6C6C6C"/>
<circle cx="448" cy="189" r="4" fill="#6C6C6C"/>
<circle cx="670" cy="189" r="4" fill="#6C6C6C"/>
<circle cx="892" cy="189" r="4" fill="#6C6C6C"/>
<circle cx="1114" cy="189" r="4" fill="#6C6C6C"/>
<circle cx="374" cy="189" r="4" fill="#6C6C6C"/>
<circle cx="596" cy="189" r="4" fill="#6C6C6C"/>
<circle cx="818" cy="189" r="4" fill="#6C6C6C"/>
<circle cx="1040" cy="189" r="4" fill="#6C6C6C"/>
<circle cx="263" cy="189" r="4" fill="#6C6C6C"/>
<circle cx="485" cy="189" r="4" fill="#6C6C6C"/>
<circle cx="707" cy="189" r="4" fill="#6C6C6C"/>
<circle cx="929" cy="189" r="4" fill="#6C6C6C"/>
<circle cx="1151" cy="189" r="4" fill="#6C6C6C"/>
<circle cx="300" cy="411" r="4" fill="#6C6C6C"/>
<circle cx="522" cy="411" r="4" fill="#6C6C6C"/>
<circle cx="744" cy="411" r="4" fill="#6C6C6C"/>
<circle cx="966" cy="411" r="4" fill="#6C6C6C"/>
<circle cx="411" cy="411" r="4" fill="#6C6C6C"/>
<circle cx="633" cy="411" r="4" fill="#6C6C6C"/>
<circle cx="855" cy="411" r="4" fill="#6C6C6C"/>
<circle cx="1077" cy="411" r="4" fill="#6C6C6C"/>
<circle cx="337" cy="411" r="4" fill="#6C6C6C"/>
<circle cx="559" cy="411" r="4" fill="#6C6C6C"/>
<circle cx="781" cy="411" r="4" fill="#6C6C6C"/>
<circle cx="1003" cy="411" r="4" fill="#6C6C6C"/>
<circle cx="226" cy="411" r="4" fill="#6C6C6C"/>
<circle cx="448" cy="411" r="4" fill="#6C6C6C"/>
<circle cx="670" cy="411" r="4" fill="#6C6C6C"/>
<circle cx="892" cy="411" r="4" fill="#6C6C6C"/>
<circle cx="1114" cy="411" r="4" fill="#6C6C6C"/>
<circle cx="374" cy="411" r="4" fill="#6C6C6C"/>
<circle cx="596" cy="411" r="4" fill="#6C6C6C"/>
<circle cx="818" cy="411" r="4" fill="#6C6C6C"/>
<circle cx="1040" cy="411" r="4" fill="#6C6C6C"/>
<circle cx="263" cy="411" r="4" fill="#6C6C6C"/>
<circle cx="485" cy="411" r="4" fill="#6C6C6C"/>
<circle cx="707" cy="411" r="4" fill="#6C6C6C"/>
<circle cx="929" cy="411" r="4" fill="#6C6C6C"/>
<circle cx="1151" cy="411" r="4" fill="#6C6C6C"/>
<circle cx="300" cy="596" r="4" fill="#6C6C6C"/>
<circle cx="522" cy="596" r="4" fill="#6C6C6C"/>
<circle cx="744" cy="596" r="4" fill="#6C6C6C"/>
<circle cx="966" cy="596" r="4" fill="#6C6C6C"/>
<circle cx="411" cy="596" r="4" fill="#6C6C6C"/>
<circle cx="633" cy="596" r="4" fill="#6C6C6C"/>
<circle cx="855" cy="596" r="4" fill="#6C6C6C"/>
<circle cx="1077" cy="596" r="4" fill="#6C6C6C"/>
<circle cx="337" cy="596" r="4" fill="#6C6C6C"/>
<circle cx="559" cy="596" r="4" fill="#6C6C6C"/>
<circle cx="781" cy="596" r="4" fill="#6C6C6C"/>
<circle cx="1003" cy="596" r="4" fill="#6C6C6C"/>
<circle cx="226" cy="596" r="4" fill="#6C6C6C"/>
<circle cx="448" cy="596" r="4" fill="#6C6C6C"/>
<circle cx="670" cy="596" r="4" fill="#6C6C6C"/>
<circle cx="892" cy="596" r="4" fill="#6C6C6C"/>
<circle cx="1114" cy="596" r="4" fill="#6C6C6C"/>
<circle cx="374" cy="596" r="4" fill="#6C6C6C"/>
<circle cx="596" cy="596" r="4" fill="#6C6C6C"/>
<circle cx="818" cy="596" r="4" fill="#6C6C6C"/>
<circle cx="1040" cy="596" r="4" fill="#6C6C6C"/>
<circle cx="263" cy="596" r="4" fill="#6C6C6C"/>
<circle cx="485" cy="596" r="4" fill="#6C6C6C"/>
<circle cx="707" cy="596" r="4" fill="#6C6C6C"/>
<circle cx="929" cy="596" r="4" fill="#6C6C6C"/>
<circle cx="1151" cy="596" r="4" fill="#6C6C6C"/>
<circle cx="300" cy="115" r="4" fill="#6C6C6C"/>
<circle cx="522" cy="115" r="4" fill="#6C6C6C"/>
<circle cx="744" cy="115" r="4" fill="#6C6C6C"/>
<circle cx="966" cy="115" r="4" fill="#6C6C6C"/>
<circle cx="411" cy="115" r="4" fill="#6C6C6C"/>
<circle cx="633" cy="115" r="4" fill="#6C6C6C"/>
<circle cx="855" cy="115" r="4" fill="#6C6C6C"/>
<circle cx="1077" cy="115" r="4" fill="#6C6C6C"/>
<circle cx="337" cy="115" r="4" fill="#6C6C6C"/>
<circle cx="559" cy="115" r="4" fill="#6C6C6C"/>
<circle cx="781" cy="115" r="4" fill="#6C6C6C"/>
<circle cx="1003" cy="115" r="4" fill="#6C6C6C"/>
<circle cx="226" cy="115" r="4" fill="#6C6C6C"/>
<circle cx="448" cy="115" r="4" fill="#6C6C6C"/>
<circle cx="670" cy="115" r="4" fill="#6C6C6C"/>
<circle cx="892" cy="115" r="4" fill="#6C6C6C"/>
<circle cx="1114" cy="115" r="4" fill="#6C6C6C"/>
<circle cx="374" cy="115" r="4" fill="#6C6C6C"/>
<circle cx="596" cy="115" r="4" fill="#6C6C6C"/>
<circle cx="818" cy="115" r="4" fill="#6C6C6C"/>
<circle cx="1040" cy="115" r="4" fill="#6C6C6C"/>
<circle cx="263" cy="115" r="4" fill="#6C6C6C"/>
<circle cx="485" cy="115" r="4" fill="#6C6C6C"/>
<circle cx="707" cy="115" r="4" fill="#6C6C6C"/>
<circle cx="929" cy="115" r="4" fill="#6C6C6C"/>
<circle cx="1151" cy="115" r="4" fill="#6C6C6C"/>
<circle cx="300" cy="337" r="4" fill="#6C6C6C"/>
<circle cx="522" cy="337" r="4" fill="#6C6C6C"/>
<circle cx="744" cy="337" r="4" fill="#6C6C6C"/>
<circle cx="966" cy="337" r="4" fill="#6C6C6C"/>
<circle cx="411" cy="337" r="4" fill="#6C6C6C"/>
<circle cx="633" cy="337" r="4" fill="#6C6C6C"/>
<circle cx="855" cy="337" r="4" fill="#6C6C6C"/>
<circle cx="1077" cy="337" r="4" fill="#6C6C6C"/>
<circle cx="337" cy="337" r="4" fill="#6C6C6C"/>
<circle cx="559" cy="337" r="4" fill="#6C6C6C"/>
<circle cx="781" cy="337" r="4" fill="#6C6C6C"/>
<circle cx="1003" cy="337" r="4" fill="#6C6C6C"/>
<circle cx="226" cy="337" r="4" fill="#6C6C6C"/>
<circle cx="448" cy="337" r="4" fill="#6C6C6C"/>
<circle cx="670" cy="337" r="4" fill="#6C6C6C"/>
<circle cx="892" cy="337" r="4" fill="#6C6C6C"/>
<circle cx="1114" cy="337" r="4" fill="#6C6C6C"/>
<circle cx="374" cy="337" r="4" fill="#6C6C6C"/>
<circle cx="596" cy="337" r="4" fill="#6C6C6C"/>
<circle cx="818" cy="337" r="4" fill="#6C6C6C"/>
<circle cx="1040" cy="337" r="4" fill="#6C6C6C"/>
<circle cx="263" cy="337" r="4" fill="#6C6C6C"/>
<circle cx="485" cy="337" r="4" fill="#6C6C6C"/>
<circle cx="707" cy="337" r="4" fill="#6C6C6C"/>
<circle cx="929" cy="337" r="4" fill="#6C6C6C"/>
<circle cx="1151" cy="337" r="4" fill="#6C6C6C"/>
<circle cx="300" cy="522" r="4" fill="#6C6C6C"/>
<circle cx="522" cy="522" r="4" fill="#6C6C6C"/>
<circle cx="744" cy="522" r="4" fill="#6C6C6C"/>
<circle cx="966" cy="522" r="4" fill="#6C6C6C"/>
<circle cx="411" cy="522" r="4" fill="#6C6C6C"/>
<circle cx="633" cy="522" r="4" fill="#6C6C6C"/>
<circle cx="855" cy="522" r="4" fill="#6C6C6C"/>
<circle cx="1077" cy="522" r="4" fill="#6C6C6C"/>
<circle cx="337" cy="522" r="4" fill="#6C6C6C"/>
<circle cx="559" cy="522" r="4" fill="#6C6C6C"/>
<circle cx="781" cy="522" r="4" fill="#6C6C6C"/>
<circle cx="1003" cy="522" r="4" fill="#6C6C6C"/>
<circle cx="226" cy="522" r="4" fill="#6C6C6C"/>
<circle cx="448" cy="522" r="4" fill="#6C6C6C"/>
<circle cx="670" cy="522" r="4" fill="#6C6C6C"/>
<circle cx="892" cy="522" r="4" fill="#6C6C6C"/>
<circle cx="1114" cy="522" r="4" fill="#6C6C6C"/>
<circle cx="374" cy="522" r="4" fill="#6C6C6C"/>
<circle cx="596" cy="522" r="4" fill="#6C6C6C"/>
<circle cx="818" cy="522" r="4" fill="#6C6C6C"/>
<circle cx="1040" cy="522" r="4" fill="#6C6C6C"/>
<circle cx="263" cy="522" r="4" fill="#6C6C6C"/>
<circle cx="485" cy="522" r="4" fill="#6C6C6C"/>
<circle cx="707" cy="522" r="4" fill="#6C6C6C"/>
<circle cx="929" cy="522" r="4" fill="#6C6C6C"/>
<circle cx="1151" cy="522" r="4" fill="#6C6C6C"/>
<circle cx="300" cy="226" r="4" fill="#6C6C6C"/>
<circle cx="522" cy="226" r="4" fill="#6C6C6C"/>
<circle cx="744" cy="226" r="4" fill="#6C6C6C"/>
<circle cx="966" cy="226" r="4" fill="#6C6C6C"/>
<circle cx="411" cy="226" r="4" fill="#6C6C6C"/>
<circle cx="633" cy="226" r="4" fill="#6C6C6C"/>
<circle cx="855" cy="226" r="4" fill="#6C6C6C"/>
<circle cx="1077" cy="226" r="4" fill="#6C6C6C"/>
<circle cx="337" cy="226" r="4" fill="#6C6C6C"/>
<circle cx="559" cy="226" r="4" fill="#6C6C6C"/>
<circle cx="781" cy="226" r="4" fill="#6C6C6C"/>
<circle cx="1003" cy="226" r="4" fill="#6C6C6C"/>
<circle cx="226" cy="226" r="4" fill="#6C6C6C"/>
<circle cx="448" cy="226" r="4" fill="#6C6C6C"/>
<circle cx="670" cy="226" r="4" fill="#6C6C6C"/>
<circle cx="892" cy="226" r="4" fill="#6C6C6C"/>
<circle cx="1114" cy="226" r="4" fill="#6C6C6C"/>
<circle cx="374" cy="226" r="4" fill="#6C6C6C"/>
<circle cx="596" cy="226" r="4" fill="#6C6C6C"/>
<circle cx="818" cy="226" r="4" fill="#6C6C6C"/>
<circle cx="1040" cy="226" r="4" fill="#6C6C6C"/>
<circle cx="263" cy="226" r="4" fill="#6C6C6C"/>
<circle cx="485" cy="226" r="4" fill="#6C6C6C"/>
<circle cx="707" cy="226" r="4" fill="#6C6C6C"/>
<circle cx="929" cy="226" r="4" fill="#6C6C6C"/>
<circle cx="1151" cy="226" r="4" fill="#6C6C6C"/>
<circle cx="300" cy="448" r="4" fill="#6C6C6C"/>
<circle cx="522" cy="448" r="4" fill="#6C6C6C"/>
<circle cx="744" cy="448" r="4" fill="#6C6C6C"/>
<circle cx="966" cy="448" r="4" fill="#6C6C6C"/>
<circle cx="411" cy="448" r="4" fill="#6C6C6C"/>
<circle cx="633" cy="448" r="4" fill="#6C6C6C"/>
<circle cx="855" cy="448" r="4" fill="#6C6C6C"/>
<circle cx="1077" cy="448" r="4" fill="#6C6C6C"/>
<circle cx="337" cy="448" r="4" fill="#6C6C6C"/>
<circle cx="559" cy="448" r="4" fill="#6C6C6C"/>
<circle cx="781" cy="448" r="4" fill="#6C6C6C"/>
<circle cx="1003" cy="448" r="4" fill="#6C6C6C"/>
<circle cx="226" cy="448" r="4" fill="#6C6C6C"/>
<circle cx="448" cy="448" r="4" fill="#6C6C6C"/>
<circle cx="670" cy="448" r="4" fill="#6C6C6C"/>
<circle cx="892" cy="448" r="4" fill="#6C6C6C"/>
<circle cx="1114" cy="448" r="4" fill="#6C6C6C"/>
<circle cx="374" cy="448" r="4" fill="#6C6C6C"/>
<circle cx="596" cy="448" r="4" fill="#6C6C6C"/>
<circle cx="818" cy="448" r="4" fill="#6C6C6C"/>
<circle cx="1040" cy="448" r="4" fill="#6C6C6C"/>
<circle cx="263" cy="448" r="4" fill="#6C6C6C"/>
<circle cx="485" cy="448" r="4" fill="#6C6C6C"/>
<circle cx="707" cy="448" r="4" fill="#6C6C6C"/>
<circle cx="929" cy="448" r="4" fill="#6C6C6C"/>
<circle cx="1151" cy="448" r="4" fill="#6C6C6C"/>
<circle cx="300" cy="633" r="4" fill="#6C6C6C"/>
<circle cx="522" cy="633" r="4" fill="#6C6C6C"/>
<circle cx="744" cy="633" r="4" fill="#6C6C6C"/>
<circle cx="966" cy="633" r="4" fill="#6C6C6C"/>
<circle cx="411" cy="633" r="4" fill="#6C6C6C"/>
<circle cx="633" cy="633" r="4" fill="#6C6C6C"/>
<circle cx="855" cy="633" r="4" fill="#6C6C6C"/>
<circle cx="1077" cy="633" r="4" fill="#6C6C6C"/>
<circle cx="337" cy="633" r="4" fill="#6C6C6C"/>
<circle cx="559" cy="633" r="4" fill="#6C6C6C"/>
<circle cx="781" cy="633" r="4" fill="#6C6C6C"/>
<circle cx="1003" cy="633" r="4" fill="#6C6C6C"/>
<circle cx="226" cy="633" r="4" fill="#6C6C6C"/>
<circle cx="448" cy="633" r="4" fill="#6C6C6C"/>
<circle cx="670" cy="633" r="4" fill="#6C6C6C"/>
<circle cx="892" cy="633" r="4" fill="#6C6C6C"/>
<circle cx="1114" cy="633" r="4" fill="#6C6C6C"/>
<circle cx="374" cy="633" r="4" fill="#6C6C6C"/>
<circle cx="596" cy="633" r="4" fill="#6C6C6C"/>
<circle cx="818" cy="633" r="4" fill="#6C6C6C"/>
<circle cx="1040" cy="633" r="4" fill="#6C6C6C"/>
<circle cx="263" cy="633" r="4" fill="#6C6C6C"/>
<circle cx="485" cy="633" r="4" fill="#6C6C6C"/>
<circle cx="707" cy="633" r="4" fill="#6C6C6C"/>
<circle cx="929" cy="633" r="4" fill="#6C6C6C"/>
<circle cx="1151" cy="633" r="4" fill="#6C6C6C"/>
</svg>
