<svg width="23" height="23" viewBox="0 0 23 23" fill="none" xmlns="http://www.w3.org/2000/svg">
<path fill-rule="evenodd" clip-rule="evenodd" d="M20.9628 11.4343C20.9628 16.6968 16.6968 20.9629 11.4343 20.9629C6.17179 20.9629 1.9057 16.6968 1.9057 11.4343C1.9057 6.17185 6.17179 1.90576 11.4343 1.90576C16.6968 1.90576 20.9628 6.17185 20.9628 11.4343ZM11.7757 8.94018C10.8489 9.32567 8.99664 10.1235 6.21886 11.3338C5.7678 11.5131 5.53151 11.6886 5.51 11.8602C5.47365 12.1502 5.83679 12.2644 6.33129 12.4199C6.39855 12.441 6.46825 12.4629 6.5397 12.4862C7.02621 12.6443 7.68065 12.8293 8.02087 12.8367C8.32948 12.8433 8.67393 12.7161 9.05421 12.455C11.6496 10.703 12.9893 9.81751 13.0734 9.79842C13.1328 9.78496 13.215 9.76802 13.2707 9.81754C13.3264 9.86706 13.3209 9.96085 13.315 9.98601C13.2791 10.1394 11.8536 11.4646 11.1159 12.1504C10.886 12.3642 10.7228 12.5159 10.6895 12.5505C10.6148 12.6281 10.5387 12.7015 10.4655 12.772C10.0135 13.2077 9.67458 13.5345 10.4843 14.068C10.8734 14.3244 11.1847 14.5365 11.4953 14.748C11.8346 14.979 12.1729 15.2095 12.6107 15.4964C12.7223 15.5695 12.8288 15.6455 12.9325 15.7195C13.3273 16.0009 13.682 16.2538 14.1202 16.2134C14.3748 16.19 14.6378 15.9506 14.7714 15.2365C15.087 13.549 15.7075 9.89267 15.8509 8.38597C15.8635 8.25397 15.8477 8.08503 15.835 8.01087C15.8223 7.9367 15.7958 7.83104 15.6994 7.75282C15.5852 7.66018 15.409 7.64065 15.3301 7.64204C14.9718 7.64835 14.4219 7.83954 11.7757 8.94018Z" fill="#E2EAEE"/>
</svg>
