<svg width="216" height="42" viewBox="0 0 216 42" fill="none" xmlns="http://www.w3.org/2000/svg">
<path d="M19.2252 42C18.9041 42 18.6747 41.8492 18.5371 41.5476L0.0960965 1.1413C-0.110333 0.654056 0.0158184 0.306026 0.474551 0.0972083C0.933283 -0.11161 1.27733 0.0160014 1.5067 0.480041L19.2252 39.355L36.9782 0.480041C37.1846 0.0160014 37.5286 -0.11161 38.0103 0.0972083C38.469 0.306026 38.5952 0.654056 38.3888 1.1413L19.9477 41.5476C19.8101 41.8492 19.5693 42 19.2252 42Z" fill="white"/>
<path d="M51.153 1.55893C49.6621 1.55893 48.4006 2.09258 47.3684 3.15987C46.3134 4.22716 45.7858 5.51487 45.7858 7.023V35.0046C45.7858 36.5127 46.3134 37.7888 47.3684 38.8329C48.4006 39.9002 49.6621 40.4339 51.153 40.4339H75.7525C77.2204 40.4339 78.4819 39.9002 79.537 38.8329C80.5921 37.7888 81.1197 36.5127 81.1197 35.0046V7.023C81.1197 5.51487 80.5921 4.22716 79.537 3.15987C78.4819 2.09258 77.2204 1.55893 75.7525 1.55893H51.153ZM51.153 42C49.2492 42 47.6207 41.3155 46.2675 39.9466C44.9142 38.5777 44.2376 36.9304 44.2376 35.0046V7.023C44.2376 5.09724 44.9142 3.4499 46.2675 2.08098C47.6207 0.712061 49.2492 0.0276024 51.153 0.0276024H75.7525C77.6562 0.0276024 79.2847 0.712061 80.638 2.08098C81.9912 3.4499 82.6679 5.09724 82.6679 7.023V35.0046C82.6679 36.9304 81.9912 38.5777 80.638 39.9466C79.2847 41.3155 77.6562 42 75.7525 42H51.153Z" fill="white"/>
<path d="M89.136 42C88.792 42 88.5511 41.8492 88.4135 41.5476C88.2759 41.2227 88.3218 40.9443 88.5511 40.7123L124.263 1.55893H89.136C88.6085 1.55893 88.3447 1.30371 88.3447 0.793268C88.3447 0.282824 88.6085 0.0276024 89.136 0.0276024H126.018C126.339 0.0276024 126.569 0.178415 126.706 0.480041C126.844 0.804869 126.798 1.08329 126.569 1.31531L90.8907 40.4339H126.018C126.523 40.4339 126.775 40.7007 126.775 41.2343C126.775 41.7448 126.523 42 126.018 42H89.136Z" fill="white"/>
<path d="M133.209 42C132.704 42 132.452 41.7448 132.452 41.2343V0.793268C132.452 0.282824 132.704 0.0276024 133.209 0.0276024C133.736 0.0276024 134 0.282824 134 0.793268V41.2343C134 41.7448 133.736 42 133.209 42Z" fill="white"/>
<path d="M60.6841 18.2412C60.6841 17.9787 60.8944 17.766 61.1538 17.766H66.321C66.5804 17.766 66.7907 17.9787 66.7907 18.2412V23.4681C66.7907 23.7305 66.5804 23.9433 66.321 23.9433H61.1538C60.8944 23.9433 60.6841 23.7305 60.6841 23.4681V18.2412Z" fill="#00FFF0"/>
<path d="M152.348 40.9062H158.784C159.591 40.9062 160.284 40.6198 160.864 40.0469C161.437 39.4674 161.723 38.7741 161.723 37.9668V33.6016C161.723 32.7878 161.437 32.0944 160.864 31.5215C160.284 30.9421 159.591 30.6523 158.784 30.6523H152.348V40.9062ZM151.801 42C151.651 42 151.521 41.9479 151.411 41.8438C151.306 41.7331 151.254 41.6029 151.254 41.4531V30.1152C151.254 29.9655 151.306 29.8353 151.411 29.7246C151.521 29.6204 151.651 29.5684 151.801 29.5684H158.784C159.897 29.5684 160.847 29.9622 161.635 30.75C162.423 31.5378 162.817 32.4883 162.817 33.6016V37.9668C162.817 39.0801 162.423 40.0306 161.635 40.8184C160.847 41.6061 159.897 42 158.784 42H151.801Z" fill="white"/>
<path d="M168.173 35.2422V30.6523H175.263C175.894 30.6523 176.432 30.877 176.874 31.3262C177.323 31.7754 177.548 32.3158 177.548 32.9473C177.548 33.5788 177.323 34.1191 176.874 34.5684C176.432 35.0176 175.894 35.2422 175.263 35.2422H168.173ZM176.855 35.9258C177.395 35.6328 177.825 35.2259 178.144 34.7051C178.476 34.1647 178.642 33.5788 178.642 32.9473C178.642 32.0163 178.31 31.2188 177.646 30.5547C176.988 29.8971 176.194 29.5684 175.263 29.5684H167.626C167.476 29.5684 167.346 29.6204 167.236 29.7246C167.131 29.8353 167.079 29.9655 167.079 30.1152V41.4531C167.079 41.6029 167.131 41.7331 167.236 41.8438C167.346 41.9479 167.476 42 167.626 42C167.776 42 167.903 41.9479 168.007 41.8438C168.118 41.7331 168.173 41.6029 168.173 41.4531V36.3262H174.609C175.416 36.3262 176.109 36.6159 176.689 37.1953C177.262 37.7682 177.548 38.4616 177.548 39.2754V41.4531C177.548 41.6029 177.603 41.7331 177.714 41.8438C177.818 41.9479 177.945 42 178.095 42C178.245 42 178.372 41.9479 178.476 41.8438C178.586 41.7331 178.642 41.6029 178.642 41.4531V39.2754C178.642 37.8431 178.046 36.7266 176.855 35.9258Z" fill="white"/>
<path d="M183.451 42C183.301 42 183.171 41.9479 183.061 41.8438C182.956 41.7331 182.904 41.6029 182.904 41.4531V30.1152C182.904 29.9655 182.956 29.8353 183.061 29.7246C183.171 29.6204 183.301 29.5684 183.451 29.5684C183.601 29.5684 183.728 29.6204 183.832 29.7246C183.943 29.8353 183.998 29.9655 183.998 30.1152V41.4531C183.998 41.6029 183.943 41.7331 183.832 41.8438C183.728 41.9479 183.601 42 183.451 42Z" fill="white"/>
<path d="M194.081 42C193.846 42 193.68 41.8958 193.583 41.6875L188.348 30.3398C188.29 30.2031 188.287 30.0632 188.339 29.9199C188.391 29.7832 188.485 29.6823 188.622 29.6172C188.759 29.5521 188.895 29.5456 189.032 29.5977C189.175 29.6497 189.279 29.7441 189.345 29.8809L194.081 40.1543L198.817 29.8809C198.882 29.7441 198.986 29.6497 199.13 29.5977C199.273 29.5456 199.413 29.5521 199.55 29.6172C199.686 29.6823 199.781 29.7832 199.833 29.9199C199.885 30.0632 199.878 30.2031 199.813 30.3398L194.579 41.6875C194.481 41.8958 194.315 42 194.081 42Z" fill="white"/>
<path d="M215.199 36.3262C215.349 36.3262 215.476 36.2741 215.58 36.1699C215.69 36.0658 215.746 35.9355 215.746 35.7793C215.746 35.6296 215.69 35.5026 215.58 35.3984C215.476 35.2943 215.349 35.2422 215.199 35.2422H205.277V30.6523H215.199C215.349 30.6523 215.476 30.6003 215.58 30.4961C215.69 30.3919 215.746 30.265 215.746 30.1152C215.746 29.9655 215.69 29.8353 215.58 29.7246C215.476 29.6204 215.349 29.5684 215.199 29.5684H204.73C204.58 29.5684 204.45 29.6204 204.339 29.7246C204.235 29.8353 204.183 29.9655 204.183 30.1152V41.4531C204.183 41.6029 204.235 41.7331 204.339 41.8438C204.45 41.9479 204.58 42 204.73 42H215.199C215.349 42 215.476 41.9479 215.58 41.8438C215.69 41.7331 215.746 41.6029 215.746 41.4531C215.746 41.3034 215.69 41.1764 215.58 41.0723C215.476 40.9616 215.349 40.9062 215.199 40.9062H205.277V36.3262H215.199Z" fill="white"/>
</svg>
